<svg xmlns="http://www.w3.org/2000/svg" width="1600" height="900" viewBox="0 0 1600 900">
  <defs>
    <pattern id="grid" width="40" height="40" patternUnits="userSpaceOnUse">
      <path d="M 40 0 L 0 0 0 40" fill="none" stroke="#1e293b" stroke-width="0.7"/>
    </pattern>
    <marker id="arrowhead" markerWidth="10" markerHeight="7" refX="9" refY="3.5" orient="auto">
      <polygon points="0 0, 10 3.5, 0 7" fill="#64748b"/>
    </marker>
  </defs>
  <rect width="100%" height="100%" fill="#020617"/>
  <rect width="100%" height="100%" fill="url(#grid)"/>
  <text x="40" y="54" fill="white" font-size="28" font-weight="700" text-anchor="start">Notes Showcase VM Hierarchy</text>
  <text x="40" y="84" fill="#94a3b8" font-size="15" font-weight="400" text-anchor="start">19-feature flagship hierarchy across C#, Python, TypeScript, and Swift</text>
  <path d="M240,230 C240,230 240,310 240,310" fill="none" stroke="#64748b" stroke-width="2.2" marker-end="url(#arrowhead)"/>
<text x="240" y="260" fill="#64748b" font-size="12" font-weight="400" text-anchor="middle">Component1</text>
<path d="M620,230 C620,230 620,310 620,310" fill="none" stroke="#64748b" stroke-width="2.2" marker-end="url(#arrowhead)"/>
<text x="620" y="260" fill="#64748b" font-size="12" font-weight="400" text-anchor="middle">Component2</text>
<path d="M1020,230 C1020,230 1020,310 1020,310" fill="none" stroke="#64748b" stroke-width="2.2" marker-end="url(#arrowhead)"/>
<text x="1020" y="260" fill="#64748b" font-size="12" font-weight="400" text-anchor="middle">Component3</text>
<path d="M1390,230 C1390,230 1390,310 1390,310" fill="none" stroke="#64748b" stroke-width="2.2" marker-end="url(#arrowhead)"/>
<text x="1390" y="260" fill="#64748b" font-size="12" font-weight="400" text-anchor="middle">sibling</text>
<path d="M400,455 C430,455 430,455 460,455" fill="none" stroke="#64748b" stroke-width="2.2" marker-end="url(#arrowhead)"/>
<text x="430" y="445" fill="#64748b" font-size="12" font-weight="400" text-anchor="middle">current</text>
<path d="M780,455 C810,455 810,455 840,455" fill="none" stroke="#64748b" stroke-width="2.2" marker-end="url(#arrowhead)"/>

<path d="M1020,605 C1020,605 1020,690 1020,690" fill="none" stroke="#fb7185" stroke-width="2.2" marker-end="url(#arrowhead)" stroke-dasharray="8 6"/>
<text x="1020" y="637" fill="#fb7185" font-size="12" font-weight="400" text-anchor="middle">saved</text>
<path d="M1390,605 C1390,605 1390,690 1390,690" fill="none" stroke="#64748b" stroke-width="2.2" marker-end="url(#arrowhead)"/>
<text x="1390" y="637" fill="#64748b" font-size="12" font-weight="400" text-anchor="middle">queries</text>
<path d="M1180,755 C1030,755 1030,755 880,755" fill="none" stroke="#fb7185" stroke-width="2.2" marker-end="url(#arrowhead)" stroke-dasharray="8 6"/>
<text x="1030" y="745" fill="#fb7185" font-size="12" font-weight="400" text-anchor="middle">post</text>
<path d="M620,605 C640,605 640,690 660,690" fill="none" stroke="#64748b" stroke-width="2.2" marker-end="url(#arrowhead)"/>
<text x="640" y="637" fill="#64748b" font-size="12" font-weight="400" text-anchor="middle">derived</text>
<path d="M240,605 C250,605 250,690 260,690" fill="none" stroke="#64748b" stroke-width="2.2" marker-end="url(#arrowhead)"/>
<text x="250" y="637" fill="#64748b" font-size="12" font-weight="400" text-anchor="middle">focus</text>
<rect x="80" y="125" width="1440" height="105" rx="12" fill="#0f172a"/>
<rect x="80" y="125" width="1440" height="105" rx="12" fill="rgba(8, 51, 68, 0.42)" stroke="#22d3ee" stroke-width="2"/>
<text x="800" y="157" fill="white" font-size="18" font-weight="700" text-anchor="middle">WorkspaceVM</text>
<text x="800" y="183" fill="#cbd5e1" font-size="14" font-weight="400" text-anchor="middle">AggregateVM6 root + ThemeVM and GlobalSearchVM siblings</text>
<text x="800" y="207" fill="#cbd5e1" font-size="14" font-weight="400" text-anchor="middle">Wires notebook current -&gt; notes bind, note current -&gt; form bind, saved note -&gt; row refresh</text>
<rect x="80" y="310" width="320" height="295" rx="12" fill="#0f172a"/>
<rect x="80" y="310" width="320" height="295" rx="12" fill="rgba(8, 51, 68, 0.42)" stroke="#22d3ee" stroke-width="2"/>
<text x="240" y="342" fill="white" font-size="18" font-weight="700" text-anchor="middle">NotebooksRootVM</text>
<text x="240" y="368" fill="#cbd5e1" font-size="14" font-weight="400" text-anchor="middle">HierarchicalVM&lt;NotebookModel, NotebookVM&gt;</text>
<text x="240" y="392" fill="#cbd5e1" font-size="14" font-weight="400" text-anchor="middle">recursive notebooks</text>
<text x="240" y="416" fill="#cbd5e1" font-size="14" font-weight="400" text-anchor="middle">current notebook selection</text>
<text x="240" y="440" fill="#cbd5e1" font-size="14" font-weight="400" text-anchor="middle">expand/collapse state</text>
<rect x="460" y="310" width="320" height="295" rx="12" fill="#0f172a"/>
<rect x="460" y="310" width="320" height="295" rx="12" fill="rgba(8, 51, 68, 0.42)" stroke="#22d3ee" stroke-width="2"/>
<text x="620" y="342" fill="white" font-size="18" font-weight="700" text-anchor="middle">NotesViewVM</text>
<text x="620" y="368" fill="#cbd5e1" font-size="14" font-weight="400" text-anchor="middle">CompositeVM&lt;NoteVM&gt;</text>
<text x="620" y="392" fill="#cbd5e1" font-size="14" font-weight="400" text-anchor="middle">PagedComposition finite page state</text>
<text x="620" y="416" fill="#cbd5e1" font-size="14" font-weight="400" text-anchor="middle">SearchableState title search</text>
<text x="620" y="440" fill="#cbd5e1" font-size="14" font-weight="400" text-anchor="middle">IFilterable starred filter</text>
<rect x="840" y="310" width="360" height="295" rx="12" fill="#0f172a"/>
<rect x="840" y="310" width="360" height="295" rx="12" fill="rgba(8, 51, 68, 0.42)" stroke="#22d3ee" stroke-width="2"/>
<text x="1020" y="342" fill="white" font-size="18" font-weight="700" text-anchor="middle">NoteFormVM</text>
<text x="1020" y="368" fill="#cbd5e1" font-size="14" font-weight="400" text-anchor="middle">strict FormVM&lt;NoteModel&gt;</text>
<text x="1020" y="392" fill="#cbd5e1" font-size="14" font-weight="400" text-anchor="middle">validators expose title errors</text>
<text x="1020" y="416" fill="#cbd5e1" font-size="14" font-weight="400" text-anchor="middle">DiscriminatorVM edit/preview</text>
<text x="1020" y="440" fill="#cbd5e1" font-size="14" font-weight="400" text-anchor="middle">SearchableState tag suggestions</text>
<rect x="1260" y="310" width="260" height="295" rx="12" fill="#0f172a"/>
<rect x="1260" y="310" width="260" height="295" rx="12" fill="rgba(76, 29, 149, 0.42)" stroke="#a78bfa" stroke-width="2"/>
<text x="1390" y="342" fill="white" font-size="18" font-weight="700" text-anchor="middle">GlobalSearchVM</text>
<text x="1390" y="368" fill="#cbd5e1" font-size="14" font-weight="400" text-anchor="middle">TokenPagedComposition&lt;NoteVM,string&gt;</text>
<text x="1390" y="392" fill="#cbd5e1" font-size="14" font-weight="400" text-anchor="middle">cursor-based search all notes</text>
<text x="1390" y="416" fill="#cbd5e1" font-size="14" font-weight="400" text-anchor="middle">refresh + load-more commands</text>
<text x="1390" y="440" fill="#cbd5e1" font-size="14" font-weight="400" text-anchor="middle">auto-constructs result VMs</text>
<rect x="80" y="690" width="360" height="130" rx="12" fill="#0f172a"/>
<rect x="80" y="690" width="360" height="130" rx="12" fill="rgba(136, 19, 55, 0.42)" stroke="#fb7185" stroke-width="2"/>
<text x="260" y="722" fill="white" font-size="18" font-weight="700" text-anchor="middle">CapabilityActionsVM</text>
<text x="260" y="748" fill="#cbd5e1" font-size="14" font-weight="400" text-anchor="middle">DerivedProperty focused VM</text>
<text x="260" y="772" fill="#cbd5e1" font-size="14" font-weight="400" text-anchor="middle">capability-aware commands</text>
<text x="260" y="796" fill="#cbd5e1" font-size="14" font-weight="400" text-anchor="middle">confirmation-decorated delete</text>
<rect x="500" y="690" width="320" height="130" rx="12" fill="#0f172a"/>
<rect x="500" y="690" width="320" height="130" rx="12" fill="rgba(76, 29, 149, 0.42)" stroke="#a78bfa" stroke-width="2"/>
<text x="660" y="722" fill="white" font-size="18" font-weight="700" text-anchor="middle">StatusBarVM</text>
<text x="660" y="748" fill="#cbd5e1" font-size="14" font-weight="400" text-anchor="middle">DerivedProperty text slots</text>
<text x="660" y="772" fill="#cbd5e1" font-size="14" font-weight="400" text-anchor="middle">notebook + count + dirty state</text>
<text x="660" y="796" fill="#cbd5e1" font-size="14" font-weight="400" text-anchor="middle">view-bound only</text>
<rect x="880" y="690" width="300" height="130" rx="12" fill="#0f172a"/>
<rect x="880" y="690" width="300" height="130" rx="12" fill="rgba(136, 19, 55, 0.42)" stroke="#fb7185" stroke-width="2"/>
<text x="1030" y="722" fill="white" font-size="18" font-weight="700" text-anchor="middle">NotificationsVM</text>
<text x="1030" y="748" fill="#cbd5e1" font-size="14" font-weight="400" text-anchor="middle">GroupVM notification children</text>
<text x="1030" y="772" fill="#cbd5e1" font-size="14" font-weight="400" text-anchor="middle">INotificationHub subscription</text>
<text x="1030" y="796" fill="#cbd5e1" font-size="14" font-weight="400" text-anchor="middle">NotificationVM + ConfirmationVM</text>
<rect x="1240" y="690" width="280" height="130" rx="12" fill="#0f172a"/>
<rect x="1240" y="690" width="280" height="130" rx="12" fill="rgba(120, 53, 15, 0.34)" stroke="#fbbf24" stroke-width="2"/>
<text x="1380" y="722" fill="white" font-size="18" font-weight="700" text-anchor="middle">Repository</text>
<text x="1380" y="748" fill="#cbd5e1" font-size="14" font-weight="400" text-anchor="middle">in-memory source of truth</text>
<text x="1380" y="772" fill="#cbd5e1" font-size="14" font-weight="400" text-anchor="middle">CRUD capability surface</text>
<text x="1380" y="796" fill="#cbd5e1" font-size="14" font-weight="400" text-anchor="middle">token-paged search method</text>
</svg>
