<svg xmlns="http://www.w3.org/2000/svg" width="1600" height="930" viewBox="0 0 1600 930">
  <defs>
    <pattern id="grid" width="40" height="40" patternUnits="userSpaceOnUse">
      <path d="M 40 0 L 0 0 0 40" fill="none" stroke="#1e293b" stroke-width="0.7"/>
    </pattern>
    <marker id="arrowhead" markerWidth="10" markerHeight="7" refX="9" refY="3.5" orient="auto">
      <polygon points="0 0, 10 3.5, 0 7" fill="#64748b"/>
    </marker>
  </defs>
  <rect width="100%" height="100%" fill="#020617"/>
  <rect width="100%" height="100%" fill="url(#grid)"/>
  <text x="40" y="54" fill="white" font-size="28" font-weight="700" text-anchor="start">Notes Showcase VMx Component Map</text>
  <text x="40" y="84" fill="#94a3b8" font-size="15" font-weight="400" text-anchor="start">how the example VM layer is shaped from VMx primitives</text>
  <path d="M390,212 C430,212 430,212 470,212" fill="none" stroke="#64748b" stroke-width="2.2" marker-end="url(#arrowhead)"/>
<text x="430" y="202" fill="#64748b" font-size="12" font-weight="400" text-anchor="middle">owns</text>
<path d="M780,212 C820,212 820,212 860,212" fill="none" stroke="#64748b" stroke-width="2.2" marker-end="url(#arrowhead)"/>
<text x="820" y="202" fill="#64748b" font-size="12" font-weight="400" text-anchor="middle">selects</text>
<path d="M1170,212 C1210,212 1210,212 1250,212" fill="none" stroke="#64748b" stroke-width="2.2" marker-end="url(#arrowhead)"/>
<text x="1210" y="202" fill="#64748b" font-size="12" font-weight="400" text-anchor="middle">binds</text>
<path d="M1015,295 C880,295 880,430 745,430" fill="none" stroke="#64748b" stroke-width="2.2" marker-end="url(#arrowhead)"/>
<text x="880" y="352" fill="#64748b" font-size="12" font-weight="400" text-anchor="middle">page/filter signals</text>
<path d="M1405,295 C1075,295 1075,430 745,430" fill="none" stroke="#64748b" stroke-width="2.2" marker-end="url(#arrowhead)"/>
<text x="1075" y="352" fill="#64748b" font-size="12" font-weight="400" text-anchor="middle">valid/dirty</text>
<path d="M1015,295 C1090,295 1090,430 1165,430" fill="none" stroke="#64748b" stroke-width="2.2" marker-end="url(#arrowhead)"/>
<text x="1090" y="352" fill="#64748b" font-size="12" font-weight="400" text-anchor="middle">messages</text>
<path d="M325,595 C370,595 370,710 415,710" fill="none" stroke="#64748b" stroke-width="2.2" marker-end="url(#arrowhead)"/>
<text x="370" y="642" fill="#64748b" font-size="12" font-weight="400" text-anchor="middle">button bridges</text>
<path d="M745,595 C580,595 580,710 415,710" fill="none" stroke="#64748b" stroke-width="2.2" marker-end="url(#arrowhead)"/>
<text x="580" y="642" fill="#64748b" font-size="12" font-weight="400" text-anchor="middle">observable bridges</text>
<path d="M1165,595 C1020,595 1020,710 875,710" fill="none" stroke="#64748b" stroke-width="2.2" marker-end="url(#arrowhead)"/>
<text x="1020" y="642" fill="#64748b" font-size="12" font-weight="400" text-anchor="middle">async IO</text>
<path d="M875,855 C1105,855 1105,855 1335,855" fill="none" stroke="#64748b" stroke-width="2.2" marker-end="url(#arrowhead)"/>
<text x="1105" y="845" fill="#64748b" font-size="12" font-weight="400" text-anchor="middle">verified by</text>
<rect x="80" y="130" width="310" height="165" rx="12" fill="#0f172a"/>
<rect x="80" y="130" width="310" height="165" rx="12" fill="rgba(8, 51, 68, 0.42)" stroke="#22d3ee" stroke-width="2"/>
<text x="235" y="162" fill="white" font-size="18" font-weight="700" text-anchor="middle">Root Composition</text>
<text x="235" y="188" fill="#cbd5e1" font-size="14" font-weight="400" text-anchor="middle">WorkspaceVM</text>
<text x="235" y="212" fill="#cbd5e1" font-size="14" font-weight="400" text-anchor="middle">AggregateVM6</text>
<text x="235" y="236" fill="#cbd5e1" font-size="14" font-weight="400" text-anchor="middle">ThemeVM sibling</text>
<text x="235" y="260" fill="#cbd5e1" font-size="14" font-weight="400" text-anchor="middle">GlobalSearchVM sibling</text>
<rect x="470" y="130" width="310" height="165" rx="12" fill="#0f172a"/>
<rect x="470" y="130" width="310" height="165" rx="12" fill="rgba(8, 51, 68, 0.42)" stroke="#22d3ee" stroke-width="2"/>
<text x="625" y="162" fill="white" font-size="18" font-weight="700" text-anchor="middle">Navigation Layer</text>
<text x="625" y="188" fill="#cbd5e1" font-size="14" font-weight="400" text-anchor="middle">NotebooksRootVM</text>
<text x="625" y="212" fill="#cbd5e1" font-size="14" font-weight="400" text-anchor="middle">HierarchicalVM</text>
<text x="625" y="236" fill="#cbd5e1" font-size="14" font-weight="400" text-anchor="middle">NotebookVM recursion</text>
<text x="625" y="260" fill="#cbd5e1" font-size="14" font-weight="400" text-anchor="middle">ExpandableState</text>
<rect x="860" y="130" width="310" height="165" rx="12" fill="#0f172a"/>
<rect x="860" y="130" width="310" height="165" rx="12" fill="rgba(8, 51, 68, 0.42)" stroke="#22d3ee" stroke-width="2"/>
<text x="1015" y="162" fill="white" font-size="18" font-weight="700" text-anchor="middle">List Layer</text>
<text x="1015" y="188" fill="#cbd5e1" font-size="14" font-weight="400" text-anchor="middle">NotesViewVM</text>
<text x="1015" y="212" fill="#cbd5e1" font-size="14" font-weight="400" text-anchor="middle">CompositeVM&lt;NoteVM&gt;</text>
<text x="1015" y="236" fill="#cbd5e1" font-size="14" font-weight="400" text-anchor="middle">PagedComposition</text>
<text x="1015" y="260" fill="#cbd5e1" font-size="14" font-weight="400" text-anchor="middle">SearchableState + IFilterable</text>
<rect x="1250" y="130" width="310" height="165" rx="12" fill="#0f172a"/>
<rect x="1250" y="130" width="310" height="165" rx="12" fill="rgba(8, 51, 68, 0.42)" stroke="#22d3ee" stroke-width="2"/>
<text x="1405" y="162" fill="white" font-size="18" font-weight="700" text-anchor="middle">Editor Layer</text>
<text x="1405" y="188" fill="#cbd5e1" font-size="14" font-weight="400" text-anchor="middle">NoteFormVM</text>
<text x="1405" y="212" fill="#cbd5e1" font-size="14" font-weight="400" text-anchor="middle">FormVM validation</text>
<text x="1405" y="236" fill="#cbd5e1" font-size="14" font-weight="400" text-anchor="middle">DiscriminatorVM mode</text>
<text x="1405" y="260" fill="#cbd5e1" font-size="14" font-weight="400" text-anchor="middle">tag SearchableState</text>
<rect x="160" y="430" width="330" height="165" rx="12" fill="#0f172a"/>
<rect x="160" y="430" width="330" height="165" rx="12" fill="rgba(251, 146, 60, 0.34)" stroke="#fb923c" stroke-width="2"/>
<text x="325" y="462" fill="white" font-size="18" font-weight="700" text-anchor="middle">Command Layer</text>
<text x="325" y="488" fill="#cbd5e1" font-size="14" font-weight="400" text-anchor="middle">RelayCommand</text>
<text x="325" y="512" fill="#cbd5e1" font-size="14" font-weight="400" text-anchor="middle">AsyncRelayCommand</text>
<text x="325" y="536" fill="#cbd5e1" font-size="14" font-weight="400" text-anchor="middle">ConfirmationDecoratorCommand</text>
<text x="325" y="560" fill="#cbd5e1" font-size="14" font-weight="400" text-anchor="middle">reactive canExecute triggers</text>
<rect x="580" y="430" width="330" height="165" rx="12" fill="#0f172a"/>
<rect x="580" y="430" width="330" height="165" rx="12" fill="rgba(76, 29, 149, 0.42)" stroke="#a78bfa" stroke-width="2"/>
<text x="745" y="462" fill="white" font-size="18" font-weight="700" text-anchor="middle">Derived State</text>
<text x="745" y="488" fill="#cbd5e1" font-size="14" font-weight="400" text-anchor="middle">DerivedProperty</text>
<text x="745" y="512" fill="#cbd5e1" font-size="14" font-weight="400" text-anchor="middle">status bar text</text>
<text x="745" y="536" fill="#cbd5e1" font-size="14" font-weight="400" text-anchor="middle">dirty / valid flags</text>
<text x="745" y="560" fill="#cbd5e1" font-size="14" font-weight="400" text-anchor="middle">focused VM actions</text>
<rect x="1000" y="430" width="330" height="165" rx="12" fill="#0f172a"/>
<rect x="1000" y="430" width="330" height="165" rx="12" fill="rgba(136, 19, 55, 0.42)" stroke="#fb7185" stroke-width="2"/>
<text x="1165" y="462" fill="white" font-size="18" font-weight="700" text-anchor="middle">Services</text>
<text x="1165" y="488" fill="#cbd5e1" font-size="14" font-weight="400" text-anchor="middle">MessageHub</text>
<text x="1165" y="512" fill="#cbd5e1" font-size="14" font-weight="400" text-anchor="middle">Dispatcher</text>
<text x="1165" y="536" fill="#cbd5e1" font-size="14" font-weight="400" text-anchor="middle">IDialogService</text>
<text x="1165" y="560" fill="#cbd5e1" font-size="14" font-weight="400" text-anchor="middle">INotificationHub</text>
<rect x="250" y="710" width="330" height="145" rx="12" fill="#0f172a"/>
<rect x="250" y="710" width="330" height="145" rx="12" fill="rgba(30, 41, 59, 0.55)" stroke="#94a3b8" stroke-width="2"/>
<text x="415" y="742" fill="white" font-size="18" font-weight="700" text-anchor="middle">View Adapters</text>
<text x="415" y="768" fill="#cbd5e1" font-size="14" font-weight="400" text-anchor="middle">Avalonia bindings</text>
<text x="415" y="792" fill="#cbd5e1" font-size="14" font-weight="400" text-anchor="middle">Textual bridge</text>
<text x="415" y="816" fill="#cbd5e1" font-size="14" font-weight="400" text-anchor="middle">React hooks</text>
<text x="415" y="840" fill="#cbd5e1" font-size="14" font-weight="400" text-anchor="middle">SwiftUI ObservableObject</text>
<rect x="710" y="710" width="330" height="145" rx="12" fill="#0f172a"/>
<rect x="710" y="710" width="330" height="145" rx="12" fill="rgba(120, 53, 15, 0.34)" stroke="#fbbf24" stroke-width="2"/>
<text x="875" y="742" fill="white" font-size="18" font-weight="700" text-anchor="middle">Models + Repository</text>
<text x="875" y="768" fill="#cbd5e1" font-size="14" font-weight="400" text-anchor="middle">NotebookModel</text>
<text x="875" y="792" fill="#cbd5e1" font-size="14" font-weight="400" text-anchor="middle">NoteModel</text>
<text x="875" y="816" fill="#cbd5e1" font-size="14" font-weight="400" text-anchor="middle">CRUD interfaces</text>
<text x="875" y="840" fill="#cbd5e1" font-size="14" font-weight="400" text-anchor="middle">token search pages</text>
<rect x="1170" y="710" width="330" height="145" rx="12" fill="#0f172a"/>
<rect x="1170" y="710" width="330" height="145" rx="12" fill="rgba(120, 53, 15, 0.34)" stroke="#fbbf24" stroke-width="2"/>
<text x="1335" y="742" fill="white" font-size="18" font-weight="700" text-anchor="middle">Example Contract</text>
<text x="1335" y="768" fill="#cbd5e1" font-size="14" font-weight="400" text-anchor="middle">19 parity rows</text>
<text x="1335" y="792" fill="#cbd5e1" font-size="14" font-weight="400" text-anchor="middle">THEME-001..005</text>
<text x="1335" y="816" fill="#cbd5e1" font-size="14" font-weight="400" text-anchor="middle">layer purity checks</text>
<text x="1335" y="840" fill="#cbd5e1" font-size="14" font-weight="400" text-anchor="middle">cross-flavor tests</text>
</svg>
