<svg xmlns="http://www.w3.org/2000/svg" width="1700" height="1000" viewBox="0 0 1700 1000" style="font-family: 'JetBrains Mono', ui-monospace, SFMono-Regular, Menlo, Monaco, Consolas, 'Liberation Mono', 'Courier New', monospace;">
  <defs>
    <style>
      text { font-family: 'JetBrains Mono', ui-monospace, SFMono-Regular, Menlo, Monaco, Consolas, 'Liberation Mono', 'Courier New', monospace; }
    </style>
    <pattern id="grid" width="40" height="40" patternUnits="userSpaceOnUse">
      <path d="M 40 0 L 0 0 0 40" fill="none" stroke="#1e293b" stroke-width="0.8"/>
    </pattern>
    <marker id="arrowhead" markerWidth="10" markerHeight="7" refX="9" refY="3.5" orient="auto">
      <polygon points="0 0, 10 3.5, 0 7" fill="#64748b"/>
    </marker>
  </defs>
  <rect width="100%" height="100%" fill="#020617"/>
  <rect width="100%" height="100%" fill="url(#grid)"/>
  <text x="40" y="54" fill="#f8fafc" font-size="28" font-weight="700" text-anchor="start">Aggregate Family Map</text>
  <text x="40" y="82" fill="#94a3b8" font-size="15" font-weight="400" text-anchor="start">fixed heterogeneous slots with lazy construction and stable semantic child roles</text>
  <polyline points="420,225 500,225" fill="none" stroke="#fbbf24" stroke-width="2.2" marker-end="url(#arrowhead)"/>
<polyline points="750,225 830,225" fill="none" stroke="#22d3ee" stroke-width="2.2" marker-end="url(#arrowhead)"/>
<polyline points="1080,225 1160,225" fill="none" stroke="#fb7185" stroke-width="2.2" marker-end="url(#arrowhead)"/>
<polyline points="270,284 300,486" fill="none" stroke="#34d399" stroke-width="2.2" marker-end="url(#arrowhead)"/>
<polyline points="625,284 670,486" fill="none" stroke="#34d399" stroke-width="2.2" marker-end="url(#arrowhead)"/>
<polyline points="955,284 1040,486" fill="none" stroke="#fb923c" stroke-width="2.2" marker-end="url(#arrowhead)"/>
<polyline points="1325,284 1400,486" fill="none" stroke="#94a3b8" stroke-width="2.2" marker-end="url(#arrowhead)"/>
<polyline points="300,598 325,748" fill="none" stroke="#64748b" stroke-width="2.2" marker-end="url(#arrowhead)"/>
<polyline points="1040,598 775,748" fill="none" stroke="#64748b" stroke-width="2.2" marker-end="url(#arrowhead)"/>
<polyline points="1400,598 1225,748" fill="none" stroke="#64748b" stroke-width="2.2" marker-end="url(#arrowhead)"/>
<rect x="70" y="118" width="1560" height="292" rx="12" fill="rgba(2, 6, 23, 0.12)" stroke="#22d3ee" stroke-width="1.2" stroke-dasharray="8 4"/>
<text x="84" y="140" fill="#22d3ee" font-size="12" font-weight="700" text-anchor="start">Arity and slot contract</text>
<rect x="70" y="438" width="1560" height="244" rx="12" fill="rgba(2, 6, 23, 0.12)" stroke="#34d399" stroke-width="1.2" stroke-dasharray="8 4"/>
<text x="84" y="460" fill="#34d399" font-size="12" font-weight="700" text-anchor="start">Construction and messaging</text>
<rect x="70" y="710" width="1560" height="168" rx="12" fill="rgba(2, 6, 23, 0.12)" stroke="#fb923c" stroke-width="1.2" stroke-dasharray="8 4"/>
<text x="84" y="732" fill="#fb923c" font-size="12" font-weight="700" text-anchor="start">Best-fit composition roots</text>
<rect x="120" y="166" width="300" height="118" rx="8" fill="#0f172a"/>
<rect x="120" y="166" width="300" height="118" rx="8" fill="rgba(8, 51, 68, 0.4)" stroke="#22d3ee" stroke-width="1.8"/>
<text x="270" y="194" fill="#f8fafc" font-size="18" font-weight="700" text-anchor="middle">AggregateVM1..6</text>
<text x="270" y="220" fill="#cbd5e1" font-size="13" font-weight="400" text-anchor="middle">component-shaped parent</text>
<text x="270" y="239" fill="#cbd5e1" font-size="13" font-weight="400" text-anchor="middle">fixed arity</text>
<text x="270" y="258" fill="#cbd5e1" font-size="13" font-weight="400" text-anchor="middle">heterogeneous child roles</text>
<rect x="500" y="166" width="250" height="118" rx="8" fill="#0f172a"/>
<rect x="500" y="166" width="250" height="118" rx="8" fill="rgba(120, 53, 15, 0.3)" stroke="#fbbf24" stroke-width="1.8"/>
<text x="625" y="194" fill="#f8fafc" font-size="18" font-weight="700" text-anchor="middle">Slot factories</text>
<text x="625" y="220" fill="#cbd5e1" font-size="13" font-weight="400" text-anchor="middle">Component1(...) through Component6(...)</text>
<text x="625" y="239" fill="#cbd5e1" font-size="13" font-weight="400" text-anchor="middle">invoked during construct()</text>
<text x="625" y="258" fill="#cbd5e1" font-size="13" font-weight="400" text-anchor="middle">stable semantic names</text>
<rect x="830" y="166" width="250" height="118" rx="8" fill="#0f172a"/>
<rect x="830" y="166" width="250" height="118" rx="8" fill="rgba(8, 51, 68, 0.4)" stroke="#22d3ee" stroke-width="1.8"/>
<text x="955" y="194" fill="#f8fafc" font-size="18" font-weight="700" text-anchor="middle">Typed slots</text>
<text x="955" y="220" fill="#cbd5e1" font-size="13" font-weight="400" text-anchor="middle">Component1..6</text>
<text x="955" y="239" fill="#cbd5e1" font-size="13" font-weight="400" text-anchor="middle">property per slot</text>
<text x="955" y="258" fill="#cbd5e1" font-size="13" font-weight="400" text-anchor="middle">no list indexing</text>
<rect x="1160" y="166" width="330" height="118" rx="8" fill="#0f172a"/>
<rect x="1160" y="166" width="330" height="118" rx="8" fill="rgba(136, 19, 55, 0.4)" stroke="#fb7185" stroke-width="1.8"/>
<text x="1325" y="194" fill="#f8fafc" font-size="18" font-weight="700" text-anchor="middle">Compile-time contract</text>
<text x="1325" y="220" fill="#cbd5e1" font-size="13" font-weight="400" text-anchor="middle">arity is explicit</text>
<text x="1325" y="239" fill="#cbd5e1" font-size="13" font-weight="400" text-anchor="middle">portable across four flavors</text>
<text x="1325" y="258" fill="#cbd5e1" font-size="13" font-weight="400" text-anchor="middle">no variadic escape hatch</text>
<rect x="150" y="486" width="300" height="112" rx="8" fill="#0f172a"/>
<rect x="150" y="486" width="300" height="112" rx="8" fill="rgba(6, 78, 59, 0.4)" stroke="#34d399" stroke-width="1.8"/>
<text x="300" y="514" fill="#f8fafc" font-size="18" font-weight="700" text-anchor="middle">Construct cascade</text>
<text x="300" y="540" fill="#cbd5e1" font-size="13" font-weight="400" text-anchor="middle">populate slot</text>
<text x="300" y="559" fill="#cbd5e1" font-size="13" font-weight="400" text-anchor="middle">construct child</text>
<text x="300" y="578" fill="#cbd5e1" font-size="13" font-weight="400" text-anchor="middle">aggregate settles last</text>
<rect x="520" y="486" width="300" height="112" rx="8" fill="#0f172a"/>
<rect x="520" y="486" width="300" height="112" rx="8" fill="rgba(6, 78, 59, 0.4)" stroke="#34d399" stroke-width="1.8"/>
<text x="670" y="514" fill="#f8fafc" font-size="18" font-weight="700" text-anchor="middle">Destruct cascade</text>
<text x="670" y="540" fill="#cbd5e1" font-size="13" font-weight="400" text-anchor="middle">children first</text>
<text x="670" y="559" fill="#cbd5e1" font-size="13" font-weight="400" text-anchor="middle">parent settles after slots</text>
<text x="670" y="578" fill="#cbd5e1" font-size="13" font-weight="400" text-anchor="middle">dispose remains terminal</text>
<rect x="890" y="486" width="300" height="112" rx="8" fill="#0f172a"/>
<rect x="890" y="486" width="300" height="112" rx="8" fill="rgba(251, 146, 60, 0.3)" stroke="#fb923c" stroke-width="1.8"/>
<text x="1040" y="514" fill="#f8fafc" font-size="18" font-weight="700" text-anchor="middle">Property messages</text>
<text x="1040" y="540" fill="#cbd5e1" font-size="13" font-weight="400" text-anchor="middle">slot property changed</text>
<text x="1040" y="559" fill="#cbd5e1" font-size="13" font-weight="400" text-anchor="middle">lifecycle status</text>
<text x="1040" y="578" fill="#cbd5e1" font-size="13" font-weight="400" text-anchor="middle">per-flavor casing</text>
<rect x="1260" y="486" width="280" height="112" rx="8" fill="#0f172a"/>
<rect x="1260" y="486" width="280" height="112" rx="8" fill="rgba(30, 41, 59, 0.5)" stroke="#94a3b8" stroke-width="1.8"/>
<text x="1400" y="514" fill="#f8fafc" font-size="18" font-weight="700" text-anchor="middle">No collection surface</text>
<text x="1400" y="540" fill="#cbd5e1" font-size="13" font-weight="400" text-anchor="middle">fixed children</text>
<text x="1400" y="559" fill="#cbd5e1" font-size="13" font-weight="400" text-anchor="middle">no Current</text>
<text x="1400" y="578" fill="#cbd5e1" font-size="13" font-weight="400" text-anchor="middle">no add/remove API</text>
<rect x="160" y="748" width="330" height="96" rx="8" fill="#0f172a"/>
<rect x="160" y="748" width="330" height="96" rx="8" fill="rgba(30, 41, 59, 0.5)" stroke="#94a3b8" stroke-width="1.8"/>
<text x="325" y="776" fill="#f8fafc" font-size="18" font-weight="700" text-anchor="middle">Workspace shell</text>
<text x="325" y="802" fill="#cbd5e1" font-size="13" font-weight="400" text-anchor="middle">Notes Workspace root</text>
<text x="325" y="821" fill="#cbd5e1" font-size="13" font-weight="400" text-anchor="middle">named panes and coordinators</text>
<rect x="610" y="748" width="330" height="96" rx="8" fill="#0f172a"/>
<rect x="610" y="748" width="330" height="96" rx="8" fill="rgba(30, 41, 59, 0.5)" stroke="#94a3b8" stroke-width="1.8"/>
<text x="775" y="776" fill="#f8fafc" font-size="18" font-weight="700" text-anchor="middle">Dashboard root</text>
<text x="775" y="802" fill="#cbd5e1" font-size="13" font-weight="400" text-anchor="middle">heterogeneous panels</text>
<text x="775" y="821" fill="#cbd5e1" font-size="13" font-weight="400" text-anchor="middle">stable layout contract</text>
<rect x="1060" y="748" width="330" height="96" rx="8" fill="#0f172a"/>
<rect x="1060" y="748" width="330" height="96" rx="8" fill="rgba(30, 41, 59, 0.5)" stroke="#94a3b8" stroke-width="1.8"/>
<text x="1225" y="776" fill="#f8fafc" font-size="18" font-weight="700" text-anchor="middle">Service bundle</text>
<text x="1225" y="802" fill="#cbd5e1" font-size="13" font-weight="400" text-anchor="middle">typed child VMs</text>
<text x="1225" y="821" fill="#cbd5e1" font-size="13" font-weight="400" text-anchor="middle">host adapter entry point</text>
<rect x="130" y="902" width="1460" height="62" rx="8" fill="#0f172a"/>
<rect x="130" y="902" width="1460" height="62" rx="8" fill="rgba(15, 23, 42, 0.94)" stroke="#fb923c" stroke-width="1.2"/>
<text x="146" y="926" fill="#f8fafc" font-size="13" font-weight="700" text-anchor="start">Decision rule</text>
<text x="146" y="948" fill="#cbd5e1" font-size="12" font-weight="400" text-anchor="start">Choose AggregateVM when the parent contract names each child role; choose CompositeVM or GroupVM when the child set is list-like.</text>
<rect x="408" y="196" width="109" height="20" rx="10" fill="#0f172a" stroke="#fbbf24" stroke-width="1"/>
<text x="462" y="210" fill="#fbbf24" font-size="11" font-weight="700" text-anchor="middle">configured by</text>
<rect x="759" y="196" width="67" height="20" rx="10" fill="#0f172a" stroke="#22d3ee" stroke-width="1"/>
<text x="792" y="210" fill="#22d3ee" font-size="11" font-weight="700" text-anchor="middle">creates</text>
<rect x="1082" y="196" width="81" height="20" rx="10" fill="#0f172a" stroke="#fb7185" stroke-width="1"/>
<text x="1122" y="210" fill="#fb7185" font-size="11" font-weight="700" text-anchor="middle">preserves</text>
<rect x="305" y="376" width="95" height="20" rx="10" fill="#0f172a" stroke="#34d399" stroke-width="1"/>
<text x="352" y="390" fill="#34d399" font-size="11" font-weight="700" text-anchor="middle">construct()</text>
<rect x="1007" y="376" width="67" height="20" rx="10" fill="#0f172a" stroke="#fb923c" stroke-width="1"/>
<text x="1040" y="390" fill="#fb923c" font-size="11" font-weight="700" text-anchor="middle">publish</text>
<rect x="1356" y="376" width="88" height="20" rx="10" fill="#0f172a" stroke="#94a3b8" stroke-width="1"/>
<text x="1400" y="390" fill="#94a3b8" font-size="11" font-weight="700" text-anchor="middle">not a list</text>
<rect x="773" y="672" width="158" height="20" rx="10" fill="#0f172a" stroke="#64748b" stroke-width="1"/>
<text x="852" y="686" fill="#64748b" font-size="11" font-weight="700" text-anchor="middle">slot state drives UI</text>
</svg>
