<svg xmlns="http://www.w3.org/2000/svg" width="1700" height="1000" viewBox="0 0 1700 1000" style="font-family: 'JetBrains Mono', ui-monospace, SFMono-Regular, Menlo, Monaco, Consolas, 'Liberation Mono', 'Courier New', monospace;">
  <defs>
    <style>
      text { font-family: 'JetBrains Mono', ui-monospace, SFMono-Regular, Menlo, Monaco, Consolas, 'Liberation Mono', 'Courier New', monospace; }
    </style>
    <pattern id="grid" width="40" height="40" patternUnits="userSpaceOnUse">
      <path d="M 40 0 L 0 0 0 40" fill="none" stroke="#1e293b" stroke-width="0.8"/>
    </pattern>
    <marker id="arrowhead" markerWidth="10" markerHeight="7" refX="9" refY="3.5" orient="auto">
      <polygon points="0 0, 10 3.5, 0 7" fill="#64748b"/>
    </marker>
  </defs>
  <rect width="100%" height="100%" fill="#020617"/>
  <rect width="100%" height="100%" fill="url(#grid)"/>
  <text x="40" y="54" fill="#f8fafc" font-size="28" font-weight="700" text-anchor="start">Forwarding Wrapper Family Map</text>
  <text x="40" y="82" fill="#94a3b8" font-size="15" font-weight="400" text-anchor="start">composition-first decorators for instrumentation, policy, and host adaptation</text>
  <polyline points="420,226 500,226" fill="none" stroke="#22d3ee" stroke-width="2.2" marker-end="url(#arrowhead)"/>
<polyline points="800,226 880,226" fill="none" stroke="#fb923c" stroke-width="2.2" marker-end="url(#arrowhead)"/>
<polyline points="1150,226 1230,226" fill="none" stroke="#34d399" stroke-width="2.2" marker-end="url(#arrowhead)"/>
<polyline points="270,286 290,476" fill="none" stroke="#34d399" stroke-width="2.2" marker-end="url(#arrowhead)"/>
<polyline points="650,286 640,476" fill="none" stroke="#fb923c" stroke-width="2.2" marker-end="url(#arrowhead)"/>
<polyline points="1015,286 990,476" fill="none" stroke="#fb923c" stroke-width="2.2" marker-end="url(#arrowhead)"/>
<polyline points="1370,286 1350,476" fill="none" stroke="#a78bfa" stroke-width="2.2" marker-end="url(#arrowhead)"/>
<polyline points="290,588 340,744" fill="none" stroke="#64748b" stroke-width="2.2" marker-end="url(#arrowhead)"/>
<polyline points="990,588 770,744" fill="none" stroke="#64748b" stroke-width="2.2" marker-end="url(#arrowhead)"/>
<polyline points="1350,588 1200,744" fill="none" stroke="#64748b" stroke-width="2.2" marker-end="url(#arrowhead)"/>
<rect x="70" y="118" width="1560" height="282" rx="12" fill="rgba(2, 6, 23, 0.12)" stroke="#22d3ee" stroke-width="1.2" stroke-dasharray="8 4"/>
<text x="84" y="140" fill="#22d3ee" font-size="12" font-weight="700" text-anchor="start">Wrapper contracts</text>
<rect x="70" y="428" width="1560" height="250" rx="12" fill="rgba(2, 6, 23, 0.12)" stroke="#34d399" stroke-width="1.2" stroke-dasharray="8 4"/>
<text x="84" y="450" fill="#34d399" font-size="12" font-weight="700" text-anchor="start">Override seams</text>
<rect x="70" y="706" width="1560" height="168" rx="12" fill="rgba(2, 6, 23, 0.12)" stroke="#fb923c" stroke-width="1.2" stroke-dasharray="8 4"/>
<text x="84" y="728" fill="#fb923c" font-size="12" font-weight="700" text-anchor="start">Best-fit wrapper use cases</text>
<rect x="120" y="166" width="300" height="120" rx="8" fill="#0f172a"/>
<rect x="120" y="166" width="300" height="120" rx="8" fill="rgba(8, 51, 68, 0.4)" stroke="#22d3ee" stroke-width="1.8"/>
<text x="270" y="194" fill="#f8fafc" font-size="18" font-weight="700" text-anchor="middle">ForwardingComponentVM&lt;M&gt;</text>
<text x="270" y="220" fill="#cbd5e1" font-size="13" font-weight="400" text-anchor="middle">wraps component contract</text>
<text x="270" y="239" fill="#cbd5e1" font-size="13" font-weight="400" text-anchor="middle">delegates by default</text>
<text x="270" y="258" fill="#cbd5e1" font-size="13" font-weight="400" text-anchor="middle">override selected members</text>
<rect x="500" y="166" width="300" height="120" rx="8" fill="#0f172a"/>
<rect x="500" y="166" width="300" height="120" rx="8" fill="rgba(8, 51, 68, 0.4)" stroke="#22d3ee" stroke-width="1.8"/>
<text x="650" y="194" fill="#f8fafc" font-size="18" font-weight="700" text-anchor="middle">ForwardingCompositeVM&lt;VM&gt;</text>
<text x="650" y="220" fill="#cbd5e1" font-size="13" font-weight="400" text-anchor="middle">wraps composite contract</text>
<text x="650" y="239" fill="#cbd5e1" font-size="13" font-weight="400" text-anchor="middle">forwards Current + iteration</text>
<text x="650" y="258" fill="#cbd5e1" font-size="13" font-weight="400" text-anchor="middle">decorates child access</text>
<rect x="880" y="166" width="270" height="120" rx="8" fill="#0f172a"/>
<rect x="880" y="166" width="270" height="120" rx="8" fill="rgba(6, 78, 59, 0.4)" stroke="#34d399" stroke-width="1.8"/>
<text x="1015" y="194" fill="#f8fafc" font-size="18" font-weight="700" text-anchor="middle">Inner VM</text>
<text x="1015" y="220" fill="#cbd5e1" font-size="13" font-weight="400" text-anchor="middle">canonical implementation</text>
<text x="1015" y="239" fill="#cbd5e1" font-size="13" font-weight="400" text-anchor="middle">owns real state</text>
<text x="1015" y="258" fill="#cbd5e1" font-size="13" font-weight="400" text-anchor="middle">publishes real messages</text>
<rect x="1230" y="166" width="280" height="120" rx="8" fill="#0f172a"/>
<rect x="1230" y="166" width="280" height="120" rx="8" fill="rgba(136, 19, 55, 0.4)" stroke="#fb7185" stroke-width="1.8"/>
<text x="1370" y="194" fill="#f8fafc" font-size="18" font-weight="700" text-anchor="middle">Public facade</text>
<text x="1370" y="220" fill="#cbd5e1" font-size="13" font-weight="400" text-anchor="middle">same conceptual surface</text>
<text x="1370" y="239" fill="#cbd5e1" font-size="13" font-weight="400" text-anchor="middle">narrow host policy</text>
<text x="1370" y="258" fill="#cbd5e1" font-size="13" font-weight="400" text-anchor="middle">no copied VM logic</text>
<rect x="150" y="476" width="280" height="112" rx="8" fill="#0f172a"/>
<rect x="150" y="476" width="280" height="112" rx="8" fill="rgba(6, 78, 59, 0.4)" stroke="#34d399" stroke-width="1.8"/>
<text x="290" y="504" fill="#f8fafc" font-size="18" font-weight="700" text-anchor="middle">Lifecycle forwarding</text>
<text x="290" y="530" fill="#cbd5e1" font-size="13" font-weight="400" text-anchor="middle">construct/destruct/dispose</text>
<text x="290" y="549" fill="#cbd5e1" font-size="13" font-weight="400" text-anchor="middle">usually delegate</text>
<text x="290" y="568" fill="#cbd5e1" font-size="13" font-weight="400" text-anchor="middle">ownership remains explicit</text>
<rect x="500" y="476" width="280" height="112" rx="8" fill="#0f172a"/>
<rect x="500" y="476" width="280" height="112" rx="8" fill="rgba(251, 146, 60, 0.3)" stroke="#fb923c" stroke-width="1.8"/>
<text x="640" y="504" fill="#f8fafc" font-size="18" font-weight="700" text-anchor="middle">Property forwarding</text>
<text x="640" y="530" fill="#cbd5e1" font-size="13" font-weight="400" text-anchor="middle">model/current/name/hint</text>
<text x="640" y="549" fill="#cbd5e1" font-size="13" font-weight="400" text-anchor="middle">per-instance propertyChanged</text>
<text x="640" y="568" fill="#cbd5e1" font-size="13" font-weight="400" text-anchor="middle">hub messages unchanged</text>
<rect x="850" y="476" width="280" height="112" rx="8" fill="#0f172a"/>
<rect x="850" y="476" width="280" height="112" rx="8" fill="rgba(251, 146, 60, 0.3)" stroke="#fb923c" stroke-width="1.8"/>
<text x="990" y="504" fill="#f8fafc" font-size="18" font-weight="700" text-anchor="middle">Command wrapping</text>
<text x="990" y="530" fill="#cbd5e1" font-size="13" font-weight="400" text-anchor="middle">gate existing command</text>
<text x="990" y="549" fill="#cbd5e1" font-size="13" font-weight="400" text-anchor="middle">log or meter execution</text>
<text x="990" y="568" fill="#cbd5e1" font-size="13" font-weight="400" text-anchor="middle">policy before delegate</text>
<rect x="1200" y="476" width="300" height="112" rx="8" fill="#0f172a"/>
<rect x="1200" y="476" width="300" height="112" rx="8" fill="rgba(76, 29, 149, 0.4)" stroke="#a78bfa" stroke-width="1.8"/>
<text x="1350" y="504" fill="#f8fafc" font-size="18" font-weight="700" text-anchor="middle">Selective override</text>
<text x="1350" y="530" fill="#cbd5e1" font-size="13" font-weight="400" text-anchor="middle">small behavior patch</text>
<text x="1350" y="549" fill="#cbd5e1" font-size="13" font-weight="400" text-anchor="middle">adapter-specific shape</text>
<text x="1350" y="568" fill="#cbd5e1" font-size="13" font-weight="400" text-anchor="middle">test seam without fork</text>
<rect x="180" y="744" width="320" height="96" rx="8" fill="#0f172a"/>
<rect x="180" y="744" width="320" height="96" rx="8" fill="rgba(30, 41, 59, 0.5)" stroke="#94a3b8" stroke-width="1.8"/>
<text x="340" y="772" fill="#f8fafc" font-size="18" font-weight="700" text-anchor="middle">Instrumentation</text>
<text x="340" y="798" fill="#cbd5e1" font-size="13" font-weight="400" text-anchor="middle">logging</text>
<text x="340" y="817" fill="#cbd5e1" font-size="13" font-weight="400" text-anchor="middle">metrics</text>
<text x="340" y="836" fill="#cbd5e1" font-size="13" font-weight="400" text-anchor="middle">diagnostic traces</text>
<rect x="610" y="744" width="320" height="96" rx="8" fill="#0f172a"/>
<rect x="610" y="744" width="320" height="96" rx="8" fill="rgba(30, 41, 59, 0.5)" stroke="#94a3b8" stroke-width="1.8"/>
<text x="770" y="772" fill="#f8fafc" font-size="18" font-weight="700" text-anchor="middle">Policy</text>
<text x="770" y="798" fill="#cbd5e1" font-size="13" font-weight="400" text-anchor="middle">authorization</text>
<text x="770" y="817" fill="#cbd5e1" font-size="13" font-weight="400" text-anchor="middle">feature flags</text>
<text x="770" y="836" fill="#cbd5e1" font-size="13" font-weight="400" text-anchor="middle">confirmation gates</text>
<rect x="1040" y="744" width="320" height="96" rx="8" fill="#0f172a"/>
<rect x="1040" y="744" width="320" height="96" rx="8" fill="rgba(30, 41, 59, 0.5)" stroke="#94a3b8" stroke-width="1.8"/>
<text x="1200" y="772" fill="#f8fafc" font-size="18" font-weight="700" text-anchor="middle">Host adaptation</text>
<text x="1200" y="798" fill="#cbd5e1" font-size="13" font-weight="400" text-anchor="middle">framework bridge</text>
<text x="1200" y="817" fill="#cbd5e1" font-size="13" font-weight="400" text-anchor="middle">narrow facade</text>
<text x="1200" y="836" fill="#cbd5e1" font-size="13" font-weight="400" text-anchor="middle">legacy integration</text>
<rect x="130" y="900" width="1460" height="64" rx="8" fill="#0f172a"/>
<rect x="130" y="900" width="1460" height="64" rx="8" fill="rgba(15, 23, 42, 0.94)" stroke="#fb923c" stroke-width="1.2"/>
<text x="146" y="924" fill="#f8fafc" font-size="13" font-weight="700" text-anchor="start">Decision rule</text>
<text x="146" y="946" fill="#cbd5e1" font-size="12" font-weight="400" text-anchor="start">Use forwarding wrappers when composition can adapt one behavior without re-implementing a shipped VM family.</text>
<rect x="411" y="198" width="102" height="20" rx="10" fill="#0f172a" stroke="#22d3ee" stroke-width="1"/>
<text x="462" y="212" fill="#22d3ee" font-size="11" font-weight="700" text-anchor="middle">same pattern</text>
<rect x="815" y="198" width="54" height="20" rx="10" fill="#0f172a" stroke="#fb923c" stroke-width="1"/>
<text x="842" y="212" fill="#fb923c" font-size="11" font-weight="700" text-anchor="middle">wraps</text>
<rect x="1159" y="198" width="67" height="20" rx="10" fill="#0f172a" stroke="#34d399" stroke-width="1"/>
<text x="1192" y="212" fill="#34d399" font-size="11" font-weight="700" text-anchor="middle">exposes</text>
<rect x="303" y="372" width="74" height="20" rx="10" fill="#0f172a" stroke="#34d399" stroke-width="1"/>
<text x="340" y="386" fill="#34d399" font-size="11" font-weight="700" text-anchor="middle">delegate</text>
<rect x="674" y="372" width="60" height="20" rx="10" fill="#0f172a" stroke="#fb923c" stroke-width="1"/>
<text x="704" y="386" fill="#fb923c" font-size="11" font-weight="700" text-anchor="middle">mirror</text>
<rect x="1016" y="372" width="88" height="20" rx="10" fill="#0f172a" stroke="#fb923c" stroke-width="1"/>
<text x="1060" y="386" fill="#fb923c" font-size="11" font-weight="700" text-anchor="middle">wrap calls</text>
<rect x="1383" y="372" width="74" height="20" rx="10" fill="#0f172a" stroke="#a78bfa" stroke-width="1"/>
<text x="1420" y="386" fill="#a78bfa" font-size="11" font-weight="700" text-anchor="middle">override</text>
<rect x="799" y="662" width="102" height="20" rx="10" fill="#0f172a" stroke="#64748b" stroke-width="1"/>
<text x="850" y="676" fill="#64748b" font-size="11" font-weight="700" text-anchor="middle">policy hooks</text>
<rect x="1260" y="662" width="81" height="20" rx="10" fill="#0f172a" stroke="#64748b" stroke-width="1"/>
<text x="1300" y="676" fill="#64748b" font-size="11" font-weight="700" text-anchor="middle">host seam</text>
</svg>
