<svg xmlns="http://www.w3.org/2000/svg" width="1720" height="1040" viewBox="0 0 1720 1040" style="font-family: 'JetBrains Mono', ui-monospace, SFMono-Regular, Menlo, Monaco, Consolas, 'Liberation Mono', 'Courier New', monospace;">
  <defs>
    <style>
      text { font-family: 'JetBrains Mono', ui-monospace, SFMono-Regular, Menlo, Monaco, Consolas, 'Liberation Mono', 'Courier New', monospace; }
    </style>
    <pattern id="grid" width="40" height="40" patternUnits="userSpaceOnUse">
      <path d="M 40 0 L 0 0 0 40" fill="none" stroke="#1e293b" stroke-width="0.8"/>
    </pattern>
    <marker id="arrowhead" markerWidth="10" markerHeight="7" refX="9" refY="3.5" orient="auto">
      <polygon points="0 0, 10 3.5, 0 7" fill="#64748b"/>
    </marker>
  </defs>
  <rect width="100%" height="100%" fill="#020617"/>
  <rect width="100%" height="100%" fill="url(#grid)"/>
  <text x="40" y="54" fill="#f8fafc" font-size="28" font-weight="700" text-anchor="start">Hierarchical Family Map</text>
  <text x="40" y="82" fill="#94a3b8" font-size="15" font-weight="400" text-anchor="start">recursive ownership, key-aware batch hydration, and parent/depth/path invariants</text>
  <polyline points="420,226 500,226" fill="none" stroke="#22d3ee" stroke-width="2.2" marker-end="url(#arrowhead)"/>
<polyline points="750,226 830,226" fill="none" stroke="#a78bfa" stroke-width="2.2" marker-end="url(#arrowhead)"/>
<polyline points="1080,226 1160,226" fill="none" stroke="#fb7185" stroke-width="2.2" marker-end="url(#arrowhead)"/>
<polyline points="270,288 300,482" fill="none" stroke="#34d399" stroke-width="2.2" marker-end="url(#arrowhead)"/>
<polyline points="955,288 670,482" fill="none" stroke="#a78bfa" stroke-width="2.2" marker-end="url(#arrowhead)"/>
<polyline points="955,288 1040,482" fill="none" stroke="#fb923c" stroke-width="2.2" marker-end="url(#arrowhead)"/>
<polyline points="1325,288 1400,482" fill="none" stroke="#34d399" stroke-width="2.2" marker-end="url(#arrowhead)"/>
<polyline points="300,598 345,762" fill="none" stroke="#64748b" stroke-width="2.2" marker-end="url(#arrowhead)"/>
<polyline points="670,598 785,762" fill="none" stroke="#64748b" stroke-width="2.2" marker-end="url(#arrowhead)"/>
<polyline points="1040,598 1225,762" fill="none" stroke="#64748b" stroke-width="2.2" marker-end="url(#arrowhead)"/>
<rect x="70" y="118" width="1580" height="286" rx="12" fill="rgba(2, 6, 23, 0.12)" stroke="#22d3ee" stroke-width="1.2" stroke-dasharray="8 4"/>
<text x="84" y="140" fill="#22d3ee" font-size="12" font-weight="700" text-anchor="start">Recursive node contract</text>
<rect x="70" y="434" width="1580" height="258" rx="12" fill="rgba(2, 6, 23, 0.12)" stroke="#34d399" stroke-width="1.2" stroke-dasharray="8 4"/>
<text x="84" y="456" fill="#34d399" font-size="12" font-weight="700" text-anchor="start">Materialization, batch hydration, and mutation</text>
<rect x="70" y="722" width="1580" height="176" rx="12" fill="rgba(2, 6, 23, 0.12)" stroke="#a78bfa" stroke-width="1.2" stroke-dasharray="8 4"/>
<text x="84" y="744" fill="#a78bfa" font-size="12" font-weight="700" text-anchor="start">Traversal and host rendering</text>
<rect x="120" y="166" width="300" height="122" rx="8" fill="#0f172a"/>
<rect x="120" y="166" width="300" height="122" rx="8" fill="rgba(8, 51, 68, 0.4)" stroke="#22d3ee" stroke-width="1.8"/>
<text x="270" y="194" fill="#f8fafc" font-size="18" font-weight="700" text-anchor="middle">HierarchicalVM&lt;TModel, TVM&gt;</text>
<text x="270" y="220" fill="#cbd5e1" font-size="13" font-weight="400" text-anchor="middle">modeled recursive node</text>
<text x="270" y="239" fill="#cbd5e1" font-size="13" font-weight="400" text-anchor="middle">children are same VM family</text>
<text x="270" y="258" fill="#cbd5e1" font-size="13" font-weight="400" text-anchor="middle">root and leaf semantics</text>
<rect x="500" y="166" width="250" height="122" rx="8" fill="#0f172a"/>
<rect x="500" y="166" width="250" height="122" rx="8" fill="rgba(76, 29, 149, 0.4)" stroke="#a78bfa" stroke-width="1.8"/>
<text x="625" y="194" fill="#f8fafc" font-size="18" font-weight="700" text-anchor="middle">Structural metadata</text>
<text x="625" y="220" fill="#cbd5e1" font-size="13" font-weight="400" text-anchor="middle">Parent</text>
<text x="625" y="239" fill="#cbd5e1" font-size="13" font-weight="400" text-anchor="middle">Depth / Path</text>
<text x="625" y="258" fill="#cbd5e1" font-size="13" font-weight="400" text-anchor="middle">IsRoot / IsLeaf</text>
<rect x="830" y="166" width="250" height="122" rx="8" fill="#0f172a"/>
<rect x="830" y="166" width="250" height="122" rx="8" fill="rgba(76, 29, 149, 0.4)" stroke="#a78bfa" stroke-width="1.8"/>
<text x="955" y="194" fill="#f8fafc" font-size="18" font-weight="700" text-anchor="middle">Children cache</text>
<text x="955" y="220" fill="#cbd5e1" font-size="13" font-weight="400" text-anchor="middle">lazy by default</text>
<text x="955" y="239" fill="#cbd5e1" font-size="13" font-weight="400" text-anchor="middle">eager option</text>
<text x="955" y="258" fill="#cbd5e1" font-size="13" font-weight="400" text-anchor="middle">invalidate subtree</text>
<rect x="1160" y="166" width="330" height="122" rx="8" fill="#0f172a"/>
<rect x="1160" y="166" width="330" height="122" rx="8" fill="rgba(136, 19, 55, 0.4)" stroke="#fb7185" stroke-width="1.8"/>
<text x="1325" y="194" fill="#f8fafc" font-size="18" font-weight="700" text-anchor="middle">Cycle protection</text>
<text x="1325" y="220" fill="#cbd5e1" font-size="13" font-weight="400" text-anchor="middle">reject ancestor cycles</text>
<text x="1325" y="239" fill="#cbd5e1" font-size="13" font-weight="400" text-anchor="middle">reject parent-key cycles</text>
<text x="1325" y="258" fill="#cbd5e1" font-size="13" font-weight="400" text-anchor="middle">stable parent links</text>
<rect x="150" y="482" width="300" height="116" rx="8" fill="#0f172a"/>
<rect x="150" y="482" width="300" height="116" rx="8" fill="rgba(6, 78, 59, 0.4)" stroke="#34d399" stroke-width="1.8"/>
<text x="300" y="510" fill="#f8fafc" font-size="18" font-weight="700" text-anchor="middle">Materialize children</text>
<text x="300" y="536" fill="#cbd5e1" font-size="13" font-weight="400" text-anchor="middle">factory resolves child models</text>
<text x="300" y="555" fill="#cbd5e1" font-size="13" font-weight="400" text-anchor="middle">TVM node projection</text>
<text x="300" y="574" fill="#cbd5e1" font-size="13" font-weight="400" text-anchor="middle">lazy boundary stays explicit</text>
<rect x="520" y="482" width="300" height="116" rx="8" fill="#0f172a"/>
<rect x="520" y="482" width="300" height="116" rx="8" fill="rgba(76, 29, 149, 0.4)" stroke="#a78bfa" stroke-width="1.8"/>
<text x="670" y="510" fill="#f8fafc" font-size="18" font-weight="700" text-anchor="middle">attachMany / attach_many</text>
<text x="670" y="536" fill="#cbd5e1" font-size="13" font-weight="400" text-anchor="middle">consumer key selectors</text>
<text x="670" y="555" fill="#cbd5e1" font-size="13" font-weight="400" text-anchor="middle">stable fixpoint + dedupe</text>
<text x="670" y="574" fill="#cbd5e1" font-size="13" font-weight="400" text-anchor="middle">park or reject orphans</text>
<rect x="890" y="482" width="300" height="116" rx="8" fill="#0f172a"/>
<rect x="890" y="482" width="300" height="116" rx="8" fill="rgba(251, 146, 60, 0.3)" stroke="#fb923c" stroke-width="1.8"/>
<text x="1040" y="510" fill="#f8fafc" font-size="18" font-weight="700" text-anchor="middle">TreeStructureChangedMessage</text>
<text x="1040" y="536" fill="#cbd5e1" font-size="13" font-weight="400" text-anchor="middle">add/remove/reparent</text>
<text x="1040" y="555" fill="#cbd5e1" font-size="13" font-weight="400" text-anchor="middle">each successful attach</text>
<text x="1040" y="574" fill="#cbd5e1" font-size="13" font-weight="400" text-anchor="middle">recursive observers</text>
<rect x="1260" y="482" width="280" height="116" rx="8" fill="#0f172a"/>
<rect x="1260" y="482" width="280" height="116" rx="8" fill="rgba(6, 78, 59, 0.4)" stroke="#34d399" stroke-width="1.8"/>
<text x="1400" y="510" fill="#f8fafc" font-size="18" font-weight="700" text-anchor="middle">Lifecycle cascade</text>
<text x="1400" y="536" fill="#cbd5e1" font-size="13" font-weight="400" text-anchor="middle">eager subtree participates</text>
<text x="1400" y="555" fill="#cbd5e1" font-size="13" font-weight="400" text-anchor="middle">lazy subtree waits</text>
<text x="1400" y="574" fill="#cbd5e1" font-size="13" font-weight="400" text-anchor="middle">disposed nodes stop mutating</text>
<rect x="180" y="762" width="330" height="98" rx="8" fill="#0f172a"/>
<rect x="180" y="762" width="330" height="98" rx="8" fill="rgba(30, 41, 59, 0.5)" stroke="#94a3b8" stroke-width="1.8"/>
<text x="345" y="790" fill="#f8fafc" font-size="18" font-weight="700" text-anchor="middle">Explorer trees</text>
<text x="345" y="816" fill="#cbd5e1" font-size="13" font-weight="400" text-anchor="middle">folders</text>
<text x="345" y="835" fill="#cbd5e1" font-size="13" font-weight="400" text-anchor="middle">notebooks</text>
<text x="345" y="854" fill="#cbd5e1" font-size="13" font-weight="400" text-anchor="middle">taxonomies</text>
<rect x="620" y="762" width="330" height="98" rx="8" fill="#0f172a"/>
<rect x="620" y="762" width="330" height="98" rx="8" fill="rgba(30, 41, 59, 0.5)" stroke="#94a3b8" stroke-width="1.8"/>
<text x="785" y="790" fill="#f8fafc" font-size="18" font-weight="700" text-anchor="middle">Walk utilities</text>
<text x="785" y="816" fill="#cbd5e1" font-size="13" font-weight="400" text-anchor="middle">walk()</text>
<text x="785" y="835" fill="#cbd5e1" font-size="13" font-weight="400" text-anchor="middle">walk_expanded()</text>
<text x="785" y="854" fill="#cbd5e1" font-size="13" font-weight="400" text-anchor="middle">flattened views</text>
<rect x="1060" y="762" width="330" height="98" rx="8" fill="#0f172a"/>
<rect x="1060" y="762" width="330" height="98" rx="8" fill="rgba(30, 41, 59, 0.5)" stroke="#94a3b8" stroke-width="1.8"/>
<text x="1225" y="790" fill="#f8fafc" font-size="18" font-weight="700" text-anchor="middle">Adapters</text>
<text x="1225" y="816" fill="#cbd5e1" font-size="13" font-weight="400" text-anchor="middle">tree widgets</text>
<text x="1225" y="835" fill="#cbd5e1" font-size="13" font-weight="400" text-anchor="middle">outline views</text>
<text x="1225" y="854" fill="#cbd5e1" font-size="13" font-weight="400" text-anchor="middle">virtualized renderers</text>
<rect x="130" y="920" width="1460" height="68" rx="8" fill="#0f172a"/>
<rect x="130" y="920" width="1460" height="68" rx="8" fill="rgba(15, 23, 42, 0.94)" stroke="#a78bfa" stroke-width="1.2"/>
<text x="146" y="944" fill="#f8fafc" font-size="13" font-weight="700" text-anchor="start">Decision rule</text>
<text x="146" y="966" fill="#cbd5e1" font-size="12" font-weight="400" text-anchor="start">Use HierarchicalVM when recursive structure is part of the VM contract; attachMany centralizes streamed-tree ordering, dedupe, and orphan policy.</text>
<rect x="429" y="198" width="67" height="20" rx="10" fill="#0f172a" stroke="#22d3ee" stroke-width="1"/>
<text x="462" y="212" fill="#22d3ee" font-size="11" font-weight="700" text-anchor="middle">exposes</text>
<rect x="765" y="198" width="54" height="20" rx="10" fill="#0f172a" stroke="#a78bfa" stroke-width="1"/>
<text x="792" y="212" fill="#a78bfa" font-size="11" font-weight="700" text-anchor="middle">owns</text>
<rect x="1092" y="198" width="60" height="20" rx="10" fill="#0f172a" stroke="#fb7185" stroke-width="1"/>
<text x="1122" y="212" fill="#fb7185" font-size="11" font-weight="700" text-anchor="middle">guards</text>
<rect x="307" y="372" width="95" height="20" rx="10" fill="#0f172a" stroke="#34d399" stroke-width="1"/>
<text x="354" y="386" fill="#34d399" font-size="11" font-weight="700" text-anchor="middle">materialize</text>
<rect x="688" y="372" width="144" height="20" rx="10" fill="#0f172a" stroke="#a78bfa" stroke-width="1"/>
<text x="760" y="386" fill="#a78bfa" font-size="11" font-weight="700" text-anchor="middle">materialized index</text>
<rect x="966" y="372" width="137" height="20" rx="10" fill="#0f172a" stroke="#fb923c" stroke-width="1"/>
<text x="1034" y="386" fill="#fb923c" font-size="11" font-weight="700" text-anchor="middle">publish structure</text>
<rect x="1407" y="372" width="67" height="20" rx="10" fill="#0f172a" stroke="#34d399" stroke-width="1"/>
<text x="1440" y="386" fill="#34d399" font-size="11" font-weight="700" text-anchor="middle">cascade</text>
<rect x="727" y="670" width="67" height="20" rx="10" fill="#0f172a" stroke="#64748b" stroke-width="1"/>
<text x="760" y="684" fill="#64748b" font-size="11" font-weight="700" text-anchor="middle">resolve</text>
<rect x="1150" y="670" width="60" height="20" rx="10" fill="#0f172a" stroke="#64748b" stroke-width="1"/>
<text x="1180" y="684" fill="#64748b" font-size="11" font-weight="700" text-anchor="middle">render</text>
</svg>
