<svg xmlns="http://www.w3.org/2000/svg" width="1740" height="1040" viewBox="0 0 1740 1040" role="img" aria-labelledby="diagram-title diagram-description" style="font-family: 'JetBrains Mono', ui-monospace, SFMono-Regular, Menlo, Monaco, Consolas, 'Liberation Mono', 'Courier New', monospace;">
  <title id="diagram-title">Specialized ViewModel Coordinator Map</title>
  <desc id="diagram-description">workflow-specific VMs that compose with the core hierarchy instead of replacing it</desc>
  <defs>
    <style>
      text { font-family: 'JetBrains Mono', ui-monospace, SFMono-Regular, Menlo, Monaco, Consolas, 'Liberation Mono', 'Courier New', monospace; }
    </style>
    <pattern id="grid" width="40" height="40" patternUnits="userSpaceOnUse">
      <path d="M 40 0 L 0 0 0 40" fill="none" stroke="#1e293b" stroke-width="0.8"/>
    </pattern>
    <marker id="arrowhead" markerWidth="10" markerHeight="7" refX="9" refY="3.5" orient="auto">
      <polygon points="0 0, 10 3.5, 0 7" fill="#64748b"/>
    </marker>
  </defs>
  <rect width="100%" height="100%" fill="#020617"/>
  <rect width="100%" height="100%" fill="url(#grid)"/>
  <text x="40" y="54" fill="#f8fafc" font-size="28" font-weight="700" text-anchor="start">Specialized ViewModel Coordinator Map</text>
  <text x="40" y="82" fill="#94a3b8" font-size="15" font-weight="400" text-anchor="start">workflow-specific VMs that compose with the core hierarchy instead of replacing it</text>
  <polyline points="390,226 460,226" fill="none" stroke="#22d3ee" stroke-width="2.2" marker-end="url(#arrowhead)"/>
<polyline points="1070,226 1140,226" fill="none" stroke="#22d3ee" stroke-width="2.2" marker-end="url(#arrowhead)"/>
<polyline points="255,288 300,482" fill="none" stroke="#fb923c" stroke-width="2.2" marker-end="url(#arrowhead)"/>
<polyline points="595,288 670,482" fill="none" stroke="#fbbf24" stroke-width="2.2" marker-end="url(#arrowhead)"/>
<polyline points="935,288 1040,482" fill="none" stroke="#fb7185" stroke-width="2.2" marker-end="url(#arrowhead)"/>
<polyline points="1275,288 1410,482" fill="none" stroke="#fb923c" stroke-width="2.2" marker-end="url(#arrowhead)"/>
<polyline points="300,598 345,762" fill="none" stroke="#64748b" stroke-width="2.2" marker-end="url(#arrowhead)"/>
<polyline points="670,598 785,762" fill="none" stroke="#64748b" stroke-width="2.2" marker-end="url(#arrowhead)"/>
<polyline points="1040,598 1225,762" fill="none" stroke="#64748b" stroke-width="2.2" marker-end="url(#arrowhead)"/>
<polyline points="1410,598 785,762" fill="none" stroke="#64748b" stroke-width="2.2" marker-end="url(#arrowhead)"/>
<rect x="70" y="118" width="1600" height="286" rx="12" fill="rgba(2, 6, 23, 0.12)" stroke="#22d3ee" stroke-width="1.2" stroke-dasharray="8 4"/>
<text x="84" y="140" fill="#22d3ee" font-size="12" font-weight="700" text-anchor="start">Workflow primitives</text>
<rect x="70" y="434" width="1600" height="258" rx="12" fill="rgba(2, 6, 23, 0.12)" stroke="#34d399" stroke-width="1.2" stroke-dasharray="8 4"/>
<text x="84" y="456" fill="#34d399" font-size="12" font-weight="700" text-anchor="start">Coordinator services and messages</text>
<rect x="70" y="722" width="1600" height="176" rx="12" fill="rgba(2, 6, 23, 0.12)" stroke="#fb923c" stroke-width="1.2" stroke-dasharray="8 4"/>
<text x="84" y="744" fill="#fb923c" font-size="12" font-weight="700" text-anchor="start">Host-facing use cases</text>
<rect x="120" y="166" width="270" height="122" rx="8" fill="#0f172a"/>
<rect x="120" y="166" width="270" height="122" rx="8" fill="rgba(8, 51, 68, 0.4)" stroke="#22d3ee" stroke-width="1.8"/>
<text x="255" y="194" fill="#f8fafc" font-size="18" font-weight="700" text-anchor="middle">FormVM</text>
<text x="255" y="220" fill="#cbd5e1" font-size="13" font-weight="400" text-anchor="middle">snapshot + dirty state</text>
<text x="255" y="239" fill="#cbd5e1" font-size="13" font-weight="400" text-anchor="middle">validation + approval</text>
<text x="255" y="258" fill="#cbd5e1" font-size="13" font-weight="400" text-anchor="middle">deny restores model</text>
<rect x="460" y="166" width="270" height="122" rx="8" fill="#0f172a"/>
<rect x="460" y="166" width="270" height="122" rx="8" fill="rgba(8, 51, 68, 0.4)" stroke="#22d3ee" stroke-width="1.8"/>
<text x="595" y="194" fill="#f8fafc" font-size="18" font-weight="700" text-anchor="middle">DiscriminatorVM</text>
<text x="595" y="220" fill="#cbd5e1" font-size="13" font-weight="400" text-anchor="middle">ActiveKey</text>
<text x="595" y="239" fill="#cbd5e1" font-size="13" font-weight="400" text-anchor="middle">case registry</text>
<text x="595" y="258" fill="#cbd5e1" font-size="13" font-weight="400" text-anchor="middle">mode/pane coordination</text>
<rect x="800" y="166" width="270" height="122" rx="8" fill="#0f172a"/>
<rect x="800" y="166" width="270" height="122" rx="8" fill="rgba(136, 19, 55, 0.4)" stroke="#fb7185" stroke-width="1.8"/>
<text x="935" y="194" fill="#f8fafc" font-size="18" font-weight="700" text-anchor="middle">NotificationVM</text>
<text x="935" y="220" fill="#cbd5e1" font-size="13" font-weight="400" text-anchor="middle">render-ready notification</text>
<text x="935" y="239" fill="#cbd5e1" font-size="13" font-weight="400" text-anchor="middle">dismiss command</text>
<text x="935" y="258" fill="#cbd5e1" font-size="13" font-weight="400" text-anchor="middle">auto-resolve by lifespan</text>
<rect x="1140" y="166" width="270" height="122" rx="8" fill="#0f172a"/>
<rect x="1140" y="166" width="270" height="122" rx="8" fill="rgba(136, 19, 55, 0.4)" stroke="#fb7185" stroke-width="1.8"/>
<text x="1275" y="194" fill="#f8fafc" font-size="18" font-weight="700" text-anchor="middle">ConfirmationVM</text>
<text x="1275" y="220" fill="#cbd5e1" font-size="13" font-weight="400" text-anchor="middle">inherits NotificationVM</text>
<text x="1275" y="239" fill="#cbd5e1" font-size="13" font-weight="400" text-anchor="middle">approve/reject commands</text>
<text x="1275" y="258" fill="#cbd5e1" font-size="13" font-weight="400" text-anchor="middle">no timeout auto-resolve</text>
<rect x="150" y="482" width="300" height="116" rx="8" fill="#0f172a"/>
<rect x="150" y="482" width="300" height="116" rx="8" fill="rgba(8, 51, 68, 0.4)" stroke="#22d3ee" stroke-width="1.8"/>
<text x="300" y="510" fill="#f8fafc" font-size="18" font-weight="700" text-anchor="middle">ModalVM</text>
<text x="300" y="536" fill="#cbd5e1" font-size="13" font-weight="400" text-anchor="middle">presented VM workflow</text>
<text x="300" y="555" fill="#cbd5e1" font-size="13" font-weight="400" text-anchor="middle">completion state</text>
<text x="300" y="574" fill="#cbd5e1" font-size="13" font-weight="400" text-anchor="middle">host dialog bridge</text>
<rect x="520" y="482" width="300" height="116" rx="8" fill="#0f172a"/>
<rect x="520" y="482" width="300" height="116" rx="8" fill="rgba(136, 19, 55, 0.4)" stroke="#fb7185" stroke-width="1.8"/>
<text x="670" y="510" fill="#f8fafc" font-size="18" font-weight="700" text-anchor="middle">IDialogService</text>
<text x="670" y="536" fill="#cbd5e1" font-size="13" font-weight="400" text-anchor="middle">confirm / notify / pick file</text>
<text x="670" y="555" fill="#cbd5e1" font-size="13" font-weight="400" text-anchor="middle">VM-backed modal seam</text>
<text x="670" y="574" fill="#cbd5e1" font-size="13" font-weight="400" text-anchor="middle">safe null service</text>
<rect x="890" y="482" width="300" height="116" rx="8" fill="#0f172a"/>
<rect x="890" y="482" width="300" height="116" rx="8" fill="rgba(136, 19, 55, 0.4)" stroke="#fb7185" stroke-width="1.8"/>
<text x="1040" y="510" fill="#f8fafc" font-size="18" font-weight="700" text-anchor="middle">INotificationHub</text>
<text x="1040" y="536" fill="#cbd5e1" font-size="13" font-weight="400" text-anchor="middle">post / resolve</text>
<text x="1040" y="555" fill="#cbd5e1" font-size="13" font-weight="400" text-anchor="middle">pending snapshot</text>
<text x="1040" y="574" fill="#cbd5e1" font-size="13" font-weight="400" text-anchor="middle">await user reaction</text>
<rect x="1260" y="482" width="300" height="116" rx="8" fill="#0f172a"/>
<rect x="1260" y="482" width="300" height="116" rx="8" fill="rgba(251, 146, 60, 0.3)" stroke="#fb923c" stroke-width="1.8"/>
<text x="1410" y="510" fill="#f8fafc" font-size="18" font-weight="700" text-anchor="middle">Command adapters</text>
<text x="1410" y="536" fill="#cbd5e1" font-size="13" font-weight="400" text-anchor="middle">ConfirmationDecoratorCommand</text>
<text x="1410" y="555" fill="#cbd5e1" font-size="13" font-weight="400" text-anchor="middle">make_confirm helper</text>
<text x="1410" y="574" fill="#cbd5e1" font-size="13" font-weight="400" text-anchor="middle">approve/deny wiring</text>
<rect x="180" y="762" width="330" height="98" rx="8" fill="#0f172a"/>
<rect x="180" y="762" width="330" height="98" rx="8" fill="rgba(30, 41, 59, 0.5)" stroke="#94a3b8" stroke-width="1.8"/>
<text x="345" y="790" fill="#f8fafc" font-size="18" font-weight="700" text-anchor="middle">Editor workflows</text>
<text x="345" y="816" fill="#cbd5e1" font-size="13" font-weight="400" text-anchor="middle">FormVM + DiscriminatorVM</text>
<text x="345" y="835" fill="#cbd5e1" font-size="13" font-weight="400" text-anchor="middle">edit/preview modes</text>
<rect x="620" y="762" width="330" height="98" rx="8" fill="#0f172a"/>
<rect x="620" y="762" width="330" height="98" rx="8" fill="rgba(30, 41, 59, 0.5)" stroke="#94a3b8" stroke-width="1.8"/>
<text x="785" y="790" fill="#f8fafc" font-size="18" font-weight="700" text-anchor="middle">User decisions</text>
<text x="785" y="816" fill="#cbd5e1" font-size="13" font-weight="400" text-anchor="middle">dialog confirmations</text>
<text x="785" y="835" fill="#cbd5e1" font-size="13" font-weight="400" text-anchor="middle">notification-backed confirms</text>
<rect x="1060" y="762" width="330" height="98" rx="8" fill="#0f172a"/>
<rect x="1060" y="762" width="330" height="98" rx="8" fill="rgba(30, 41, 59, 0.5)" stroke="#94a3b8" stroke-width="1.8"/>
<text x="1225" y="790" fill="#f8fafc" font-size="18" font-weight="700" text-anchor="middle">Notification regions</text>
<text x="1225" y="816" fill="#cbd5e1" font-size="13" font-weight="400" text-anchor="middle">toast lists</text>
<text x="1225" y="835" fill="#cbd5e1" font-size="13" font-weight="400" text-anchor="middle">queued actions</text>
<text x="1225" y="854" fill="#cbd5e1" font-size="13" font-weight="400" text-anchor="middle">host render VMs</text>
<rect x="130" y="920" width="1480" height="68" rx="8" fill="#0f172a"/>
<rect x="130" y="920" width="1480" height="68" rx="8" fill="rgba(15, 23, 42, 0.94)" stroke="#fb923c" stroke-width="1.2"/>
<text x="146" y="944" fill="#f8fafc" font-size="13" font-weight="700" text-anchor="start">Decision rule</text>
<text x="146" y="966" fill="#cbd5e1" font-size="12" font-weight="400" text-anchor="start">Choose a specialized VM when the workflow is reusable; otherwise compose commands, capabilities, and core VMs directly.</text>
<rect x="358" y="198" width="137" height="20" rx="10" fill="#0f172a" stroke="#22d3ee" stroke-width="1"/>
<text x="426" y="212" fill="#22d3ee" font-size="11" font-weight="700" text-anchor="middle">coordinates modes</text>
<rect x="1073" y="198" width="67" height="20" rx="10" fill="#0f172a" stroke="#22d3ee" stroke-width="1"/>
<text x="1106" y="212" fill="#22d3ee" font-size="11" font-weight="700" text-anchor="middle">extends</text>
<rect x="316" y="372" width="88" height="20" rx="10" fill="#0f172a" stroke="#fb923c" stroke-width="1"/>
<text x="360" y="386" fill="#fb923c" font-size="11" font-weight="700" text-anchor="middle">modal edit</text>
<rect x="670" y="372" width="109" height="20" rx="10" fill="#0f172a" stroke="#fbbf24" stroke-width="1"/>
<text x="724" y="386" fill="#fbbf24" font-size="11" font-weight="700" text-anchor="middle">host decision</text>
<rect x="983" y="372" width="54" height="20" rx="10" fill="#0f172a" stroke="#fb7185" stroke-width="1"/>
<text x="1010" y="386" fill="#fb7185" font-size="11" font-weight="700" text-anchor="middle">posts</text>
<rect x="1367" y="372" width="74" height="20" rx="10" fill="#0f172a" stroke="#fb923c" stroke-width="1"/>
<text x="1404" y="386" fill="#fb923c" font-size="11" font-weight="700" text-anchor="middle">commands</text>
<rect x="733" y="670" width="54" height="20" rx="10" fill="#0f172a" stroke="#94a3b8" stroke-width="1"/>
<text x="760" y="684" fill="#94a3b8" font-size="11" font-weight="700" text-anchor="middle">await</text>
<rect x="1150" y="670" width="60" height="20" rx="10" fill="#0f172a" stroke="#94a3b8" stroke-width="1"/>
<text x="1180" y="684" fill="#94a3b8" font-size="11" font-weight="700" text-anchor="middle">render</text>
</svg>
