<svg xmlns="http://www.w3.org/2000/svg" width="1700" height="1040" viewBox="0 0 1700 1040" style="font-family: 'JetBrains Mono', ui-monospace, SFMono-Regular, Menlo, Monaco, Consolas, 'Liberation Mono', 'Courier New', monospace;">
  <defs>
    <style>
      text { font-family: 'JetBrains Mono', ui-monospace, SFMono-Regular, Menlo, Monaco, Consolas, 'Liberation Mono', 'Courier New', monospace; }
    </style>
    <pattern id="grid" width="40" height="40" patternUnits="userSpaceOnUse">
      <path d="M 40 0 L 0 0 0 40" fill="none" stroke="#1e293b" stroke-width="0.8"/>
    </pattern>
    <marker id="arrowhead" markerWidth="10" markerHeight="7" refX="9" refY="3.5" orient="auto">
      <polygon points="0 0, 10 3.5, 0 7" fill="#64748b"/>
    </marker>
  </defs>
  <rect width="100%" height="100%" fill="#020617"/>
  <rect width="100%" height="100%" fill="url(#grid)"/>
  <text x="40" y="54" fill="#f8fafc" font-size="28" font-weight="700" text-anchor="start">VMx System Architecture</text>
  <text x="40" y="82" fill="#94a3b8" font-size="15" font-weight="400" text-anchor="start">spec 3.3.0 source of truth -&gt; parity flavors -&gt; host examples</text>
  <polyline points="260,200 280,200" fill="none" stroke="#fbbf24" stroke-width="2.2" marker-end="url(#arrowhead)"/>
<polyline points="450,200 550,200" fill="none" stroke="#fbbf24" stroke-width="2.2" marker-end="url(#arrowhead)"/>
<polyline points="450,312 550,312" fill="none" stroke="#fb923c" stroke-width="2.2" marker-end="url(#arrowhead)"/>
<polyline points="770,206 790,206" fill="none" stroke="#22d3ee" stroke-width="2.2" marker-end="url(#arrowhead)"/>
<polyline points="1040,206 1150,206" fill="none" stroke="#34d399" stroke-width="2.2" marker-end="url(#arrowhead)"/>
<polyline points="1040,344 1150,344" fill="none" stroke="#a78bfa" stroke-width="2.2" marker-end="url(#arrowhead)"/>
<polyline points="1520,262 1520,288" fill="none" stroke="#fb7185" stroke-width="2.2" marker-end="url(#arrowhead)"/>
<polyline points="660,398 255,536" fill="none" stroke="#22d3ee" stroke-width="2.2" marker-end="url(#arrowhead)"/>
<polyline points="660,398 495,536" fill="none" stroke="#22d3ee" stroke-width="2.2" marker-end="url(#arrowhead)"/>
<polyline points="790,398 735,536" fill="none" stroke="#22d3ee" stroke-width="2.2" marker-end="url(#arrowhead)"/>
<polyline points="920,398 975,536" fill="none" stroke="#22d3ee" stroke-width="2.2" marker-end="url(#arrowhead)"/>
<polyline points="1040,398 1215,536" fill="none" stroke="#22d3ee" stroke-width="2.2" marker-end="url(#arrowhead)"/>
<polyline points="1270,398 1460,536" fill="none" stroke="#a78bfa" stroke-width="2.2" marker-end="url(#arrowhead)"/>
<polyline points="410,672 450,820" fill="none" stroke="#64748b" stroke-width="2.2" marker-end="url(#arrowhead)"/>
<polyline points="845,672 850,820" fill="none" stroke="#fb923c" stroke-width="2.2" marker-end="url(#arrowhead)"/>
<polyline points="1400,672 1250,820" fill="none" stroke="#34d399" stroke-width="2.2" marker-end="url(#arrowhead)"/>
<rect x="60" y="118" width="420" height="264" rx="12" fill="rgba(2, 6, 23, 0.12)" stroke="#fbbf24" stroke-width="1.2" stroke-dasharray="8 4"/>
<text x="74" y="140" fill="#fbbf24" font-size="12" font-weight="700" text-anchor="start">Specification control plane</text>
<rect x="520" y="118" width="560" height="324" rx="12" fill="rgba(2, 6, 23, 0.12)" stroke="#34d399" stroke-width="1.2" stroke-dasharray="8 4"/>
<text x="534" y="140" fill="#34d399" font-size="12" font-weight="700" text-anchor="start">Core runtime surface</text>
<rect x="1120" y="118" width="520" height="324" rx="12" fill="rgba(2, 6, 23, 0.12)" stroke="#a78bfa" stroke-width="1.2" stroke-dasharray="8 4"/>
<text x="1134" y="140" fill="#a78bfa" font-size="12" font-weight="700" text-anchor="start">Support contracts and helpers</text>
<rect x="120" y="492" width="1460" height="266" rx="12" fill="rgba(2, 6, 23, 0.12)" stroke="#22d3ee" stroke-width="1.2" stroke-dasharray="8 4"/>
<text x="134" y="514" fill="#22d3ee" font-size="12" font-weight="700" text-anchor="start">Flavor implementations</text>
<rect x="260" y="788" width="1180" height="172" rx="12" fill="rgba(2, 6, 23, 0.12)" stroke="#fb923c" stroke-width="1.2" stroke-dasharray="8 4"/>
<text x="274" y="810" fill="#fb923c" font-size="12" font-weight="700" text-anchor="start">Example and validation loop</text>
<rect x="90" y="152" width="170" height="96" rx="8" fill="#0f172a"/>
<rect x="90" y="152" width="170" height="96" rx="8" fill="rgba(120, 53, 15, 0.3)" stroke="#fbbf24" stroke-width="1.8"/>
<text x="175" y="180" fill="#f8fafc" font-size="18" font-weight="700" text-anchor="middle">spec/</text>
<text x="175" y="206" fill="#cbd5e1" font-size="13" font-weight="400" text-anchor="middle">23 chapters</text>
<text x="175" y="225" fill="#cbd5e1" font-size="13" font-weight="400" text-anchor="middle">83 ADRs</text>
<text x="175" y="244" fill="#cbd5e1" font-size="13" font-weight="400" text-anchor="middle">VERSION 3.3.0</text>
<rect x="280" y="152" width="170" height="96" rx="8" fill="#0f172a"/>
<rect x="280" y="152" width="170" height="96" rx="8" fill="rgba(120, 53, 15, 0.3)" stroke="#fbbf24" stroke-width="1.8"/>
<text x="365" y="180" fill="#f8fafc" font-size="18" font-weight="700" text-anchor="middle">fixtures</text>
<text x="365" y="206" fill="#cbd5e1" font-size="13" font-weight="400" text-anchor="middle">4 shared JSON fixtures</text>
<text x="365" y="225" fill="#cbd5e1" font-size="13" font-weight="400" text-anchor="middle">lifecycle / messages</text>
<text x="365" y="244" fill="#cbd5e1" font-size="13" font-weight="400" text-anchor="middle">commands / derived</text>
<rect x="90" y="270" width="360" height="100" rx="8" fill="#0f172a"/>
<rect x="90" y="270" width="360" height="100" rx="8" fill="rgba(251, 146, 60, 0.3)" stroke="#fb923c" stroke-width="1.8"/>
<text x="270" y="298" fill="#f8fafc" font-size="18" font-weight="700" text-anchor="middle">12-conformance</text>
<text x="270" y="324" fill="#cbd5e1" font-size="13" font-weight="400" text-anchor="middle">290 library IDs</text>
<text x="270" y="343" fill="#cbd5e1" font-size="13" font-weight="400" text-anchor="middle">5 THEME scenario IDs</text>
<text x="270" y="362" fill="#cbd5e1" font-size="13" font-weight="400" text-anchor="middle">295 total</text>
<rect x="550" y="152" width="220" height="110" rx="8" fill="#0f172a"/>
<rect x="550" y="152" width="220" height="110" rx="8" fill="rgba(6, 78, 59, 0.4)" stroke="#34d399" stroke-width="1.8"/>
<text x="660" y="180" fill="#f8fafc" font-size="18" font-weight="700" text-anchor="middle">Lifecycle base</text>
<text x="660" y="206" fill="#cbd5e1" font-size="13" font-weight="400" text-anchor="middle">ComponentVMBase</text>
<text x="660" y="225" fill="#cbd5e1" font-size="13" font-weight="400" text-anchor="middle">guarded transitions</text>
<text x="660" y="244" fill="#cbd5e1" font-size="13" font-weight="400" text-anchor="middle">dispose cascade</text>
<rect x="790" y="152" width="250" height="110" rx="8" fill="#0f172a"/>
<rect x="790" y="152" width="250" height="110" rx="8" fill="rgba(8, 51, 68, 0.4)" stroke="#22d3ee" stroke-width="1.8"/>
<text x="915" y="180" fill="#f8fafc" font-size="18" font-weight="700" text-anchor="middle">VM families</text>
<text x="915" y="206" fill="#cbd5e1" font-size="13" font-weight="400" text-anchor="middle">component</text>
<text x="915" y="225" fill="#cbd5e1" font-size="13" font-weight="400" text-anchor="middle">composite / group / aggregate</text>
<text x="915" y="244" fill="#cbd5e1" font-size="13" font-weight="400" text-anchor="middle">hierarchical + forwarding</text>
<rect x="550" y="288" width="220" height="110" rx="8" fill="#0f172a"/>
<rect x="550" y="288" width="220" height="110" rx="8" fill="rgba(251, 146, 60, 0.3)" stroke="#fb923c" stroke-width="1.8"/>
<text x="660" y="316" fill="#f8fafc" font-size="18" font-weight="700" text-anchor="middle">Commands</text>
<text x="660" y="342" fill="#cbd5e1" font-size="13" font-weight="400" text-anchor="middle">RelayCommand</text>
<text x="660" y="361" fill="#cbd5e1" font-size="13" font-weight="400" text-anchor="middle">decorators</text>
<text x="660" y="380" fill="#cbd5e1" font-size="13" font-weight="400" text-anchor="middle">ModeledCrudCommands</text>
<rect x="790" y="288" width="250" height="110" rx="8" fill="#0f172a"/>
<rect x="790" y="288" width="250" height="110" rx="8" fill="rgba(136, 19, 55, 0.4)" stroke="#fb7185" stroke-width="1.8"/>
<text x="915" y="316" fill="#f8fafc" font-size="18" font-weight="700" text-anchor="middle">Capabilities</text>
<text x="915" y="342" fill="#cbd5e1" font-size="13" font-weight="400" text-anchor="middle">22 micro-interfaces</text>
<text x="915" y="361" fill="#cbd5e1" font-size="13" font-weight="400" text-anchor="middle">selection / CRUD / paging</text>
<text x="915" y="380" fill="#cbd5e1" font-size="13" font-weight="400" text-anchor="middle">opt-in behavior</text>
<rect x="1150" y="152" width="220" height="110" rx="8" fill="#0f172a"/>
<rect x="1150" y="152" width="220" height="110" rx="8" fill="rgba(136, 19, 55, 0.4)" stroke="#fb7185" stroke-width="1.8"/>
<text x="1260" y="180" fill="#f8fafc" font-size="18" font-weight="700" text-anchor="middle">Services</text>
<text x="1260" y="206" fill="#cbd5e1" font-size="13" font-weight="400" text-anchor="middle">MessageHub</text>
<text x="1260" y="225" fill="#cbd5e1" font-size="13" font-weight="400" text-anchor="middle">Dispatcher</text>
<text x="1260" y="244" fill="#cbd5e1" font-size="13" font-weight="400" text-anchor="middle">IDialogService</text>
<text x="1260" y="263" fill="#cbd5e1" font-size="13" font-weight="400" text-anchor="middle">ILocalizer</text>
<rect x="1390" y="152" width="220" height="110" rx="8" fill="#0f172a"/>
<rect x="1390" y="152" width="220" height="110" rx="8" fill="rgba(76, 29, 149, 0.4)" stroke="#a78bfa" stroke-width="1.8"/>
<text x="1500" y="180" fill="#f8fafc" font-size="18" font-weight="700" text-anchor="middle">Collections + state</text>
<text x="1500" y="206" fill="#cbd5e1" font-size="13" font-weight="400" text-anchor="middle">ObservableList</text>
<text x="1500" y="225" fill="#cbd5e1" font-size="13" font-weight="400" text-anchor="middle">DerivedProperty</text>
<text x="1500" y="244" fill="#cbd5e1" font-size="13" font-weight="400" text-anchor="middle">SearchableState</text>
<rect x="1150" y="288" width="220" height="110" rx="8" fill="#0f172a"/>
<rect x="1150" y="288" width="220" height="110" rx="8" fill="rgba(76, 29, 149, 0.4)" stroke="#a78bfa" stroke-width="1.8"/>
<text x="1260" y="316" fill="#f8fafc" font-size="18" font-weight="700" text-anchor="middle">Paging primitives</text>
<text x="1260" y="342" fill="#cbd5e1" font-size="13" font-weight="400" text-anchor="middle">PagedComposition</text>
<text x="1260" y="361" fill="#cbd5e1" font-size="13" font-weight="400" text-anchor="middle">TokenPagedComposition</text>
<text x="1260" y="380" fill="#cbd5e1" font-size="13" font-weight="400" text-anchor="middle">filtered ordering</text>
<rect x="1390" y="288" width="220" height="110" rx="8" fill="#0f172a"/>
<rect x="1390" y="288" width="220" height="110" rx="8" fill="rgba(136, 19, 55, 0.4)" stroke="#fb7185" stroke-width="1.8"/>
<text x="1500" y="316" fill="#f8fafc" font-size="18" font-weight="700" text-anchor="middle">Notifications</text>
<text x="1500" y="342" fill="#cbd5e1" font-size="13" font-weight="400" text-anchor="middle">INotificationHub</text>
<text x="1500" y="361" fill="#cbd5e1" font-size="13" font-weight="400" text-anchor="middle">NotificationVM</text>
<text x="1500" y="380" fill="#cbd5e1" font-size="13" font-weight="400" text-anchor="middle">ConfirmationVM</text>
<rect x="150" y="536" width="210" height="136" rx="8" fill="#0f172a"/>
<rect x="150" y="536" width="210" height="136" rx="8" fill="rgba(8, 51, 68, 0.4)" stroke="#22d3ee" stroke-width="1.8"/>
<text x="255" y="564" fill="#f8fafc" font-size="18" font-weight="700" text-anchor="middle">C#</text>
<text x="255" y="590" fill="#cbd5e1" font-size="13" font-weight="400" text-anchor="middle">PascalCase surface</text>
<text x="255" y="609" fill="#cbd5e1" font-size="13" font-weight="400" text-anchor="middle">System.Reactive</text>
<text x="255" y="628" fill="#cbd5e1" font-size="13" font-weight="400" text-anchor="middle">NuGet packages</text>
<rect x="390" y="536" width="210" height="136" rx="8" fill="#0f172a"/>
<rect x="390" y="536" width="210" height="136" rx="8" fill="rgba(8, 51, 68, 0.4)" stroke="#22d3ee" stroke-width="1.8"/>
<text x="495" y="564" fill="#f8fafc" font-size="18" font-weight="700" text-anchor="middle">Python</text>
<text x="495" y="590" fill="#cbd5e1" font-size="13" font-weight="400" text-anchor="middle">snake_case surface</text>
<text x="495" y="609" fill="#cbd5e1" font-size="13" font-weight="400" text-anchor="middle">reactivex</text>
<text x="495" y="628" fill="#cbd5e1" font-size="13" font-weight="400" text-anchor="middle">uv + pytest</text>
<rect x="630" y="536" width="210" height="136" rx="8" fill="#0f172a"/>
<rect x="630" y="536" width="210" height="136" rx="8" fill="rgba(8, 51, 68, 0.4)" stroke="#22d3ee" stroke-width="1.8"/>
<text x="735" y="564" fill="#f8fafc" font-size="18" font-weight="700" text-anchor="middle">TypeScript</text>
<text x="735" y="590" fill="#cbd5e1" font-size="13" font-weight="400" text-anchor="middle">camelCase surface</text>
<text x="735" y="609" fill="#cbd5e1" font-size="13" font-weight="400" text-anchor="middle">rxjs</text>
<text x="735" y="628" fill="#cbd5e1" font-size="13" font-weight="400" text-anchor="middle">dual ESM/CJS</text>
<rect x="870" y="536" width="210" height="136" rx="8" fill="#0f172a"/>
<rect x="870" y="536" width="210" height="136" rx="8" fill="rgba(8, 51, 68, 0.4)" stroke="#22d3ee" stroke-width="1.8"/>
<text x="975" y="564" fill="#f8fafc" font-size="18" font-weight="700" text-anchor="middle">Swift</text>
<text x="975" y="590" fill="#cbd5e1" font-size="13" font-weight="400" text-anchor="middle">camelCase surface</text>
<text x="975" y="609" fill="#cbd5e1" font-size="13" font-weight="400" text-anchor="middle">Combine</text>
<text x="975" y="628" fill="#cbd5e1" font-size="13" font-weight="400" text-anchor="middle">SwiftPM resources</text>
<rect x="1110" y="536" width="210" height="136" rx="8" fill="#0f172a"/>
<rect x="1110" y="536" width="210" height="136" rx="8" fill="rgba(8, 51, 68, 0.4)" stroke="#22d3ee" stroke-width="1.8"/>
<text x="1215" y="564" fill="#f8fafc" font-size="18" font-weight="700" text-anchor="middle">Rust</text>
<text x="1215" y="590" fill="#cbd5e1" font-size="13" font-weight="400" text-anchor="middle">Rust type names</text>
<text x="1215" y="609" fill="#cbd5e1" font-size="13" font-weight="400" text-anchor="middle">rxrust facade</text>
<text x="1215" y="628" fill="#cbd5e1" font-size="13" font-weight="400" text-anchor="middle">Cargo crate</text>
<rect x="1350" y="536" width="220" height="136" rx="8" fill="#0f172a"/>
<rect x="1350" y="536" width="220" height="136" rx="8" fill="rgba(30, 41, 59, 0.5)" stroke="#94a3b8" stroke-width="1.8"/>
<text x="1460" y="564" fill="#f8fafc" font-size="18" font-weight="700" text-anchor="middle">Compatibility matrix</text>
<text x="1460" y="590" fill="#cbd5e1" font-size="13" font-weight="400" text-anchor="middle">independent package versions</text>
<text x="1460" y="609" fill="#cbd5e1" font-size="13" font-weight="400" text-anchor="middle">manual spec mapping</text>
<text x="1460" y="628" fill="#cbd5e1" font-size="13" font-weight="400" text-anchor="middle">major bumps track spec majors</text>
<rect x="300" y="820" width="300" height="108" rx="8" fill="#0f172a"/>
<rect x="300" y="820" width="300" height="108" rx="8" fill="rgba(30, 41, 59, 0.5)" stroke="#94a3b8" stroke-width="1.8"/>
<text x="450" y="848" fill="#f8fafc" font-size="18" font-weight="700" text-anchor="middle">Flagship examples</text>
<text x="450" y="874" fill="#cbd5e1" font-size="13" font-weight="400" text-anchor="middle">Notes Workspace across four hosts</text>
<text x="450" y="893" fill="#cbd5e1" font-size="13" font-weight="400" text-anchor="middle">19 feature rows + THEME-001..005</text>
<rect x="700" y="820" width="300" height="108" rx="8" fill="#0f172a"/>
<rect x="700" y="820" width="300" height="108" rx="8" fill="rgba(251, 146, 60, 0.3)" stroke="#fb923c" stroke-width="1.8"/>
<text x="850" y="848" fill="#f8fafc" font-size="18" font-weight="700" text-anchor="middle">CI gates</text>
<text x="850" y="874" fill="#cbd5e1" font-size="13" font-weight="400" text-anchor="middle">spec-discipline</text>
<text x="850" y="893" fill="#cbd5e1" font-size="13" font-weight="400" text-anchor="middle">coverage tool</text>
<text x="850" y="912" fill="#cbd5e1" font-size="13" font-weight="400" text-anchor="middle">examples contract checks</text>
<rect x="1100" y="820" width="300" height="108" rx="8" fill="#0f172a"/>
<rect x="1100" y="820" width="300" height="108" rx="8" fill="rgba(120, 53, 15, 0.3)" stroke="#fbbf24" stroke-width="1.8"/>
<text x="1250" y="848" fill="#f8fafc" font-size="18" font-weight="700" text-anchor="middle">Release posture</text>
<text x="1250" y="874" fill="#cbd5e1" font-size="13" font-weight="400" text-anchor="middle">same conceptual shape</text>
<text x="1250" y="893" fill="#cbd5e1" font-size="13" font-weight="400" text-anchor="middle">idiomatic per language</text>
<text x="1250" y="912" fill="#cbd5e1" font-size="13" font-weight="400" text-anchor="middle">repo facts drive docs</text>
<rect x="473" y="174" width="54" height="20" rx="10" fill="#0f172a" stroke="#fbbf24" stroke-width="1"/>
<text x="500" y="188" fill="#fbbf24" font-size="11" font-weight="700" text-anchor="middle">norms</text>
<rect x="456" y="286" width="88" height="20" rx="10" fill="#0f172a" stroke="#fb923c" stroke-width="1"/>
<text x="500" y="300" fill="#fb923c" font-size="11" font-weight="700" text-anchor="middle">catalogues</text>
<rect x="1063" y="180" width="67" height="20" rx="10" fill="#0f172a" stroke="#34d399" stroke-width="1"/>
<text x="1096" y="194" fill="#34d399" font-size="11" font-weight="700" text-anchor="middle">injects</text>
<rect x="1047" y="318" width="95" height="20" rx="10" fill="#0f172a" stroke="#a78bfa" stroke-width="1"/>
<text x="1094" y="332" fill="#a78bfa" font-size="11" font-weight="700" text-anchor="middle">coordinates</text>
<rect x="416" y="436" width="116" height="20" rx="10" fill="#0f172a" stroke="#22d3ee" stroke-width="1"/>
<text x="474" y="450" fill="#22d3ee" font-size="11" font-weight="700" text-anchor="middle">idiomatic APIs</text>
<rect x="1301" y="438" width="158" height="20" rx="10" fill="#0f172a" stroke="#a78bfa" stroke-width="1"/>
<text x="1380" y="452" fill="#a78bfa" font-size="11" font-weight="700" text-anchor="middle">versioned separately</text>
<rect x="405" y="732" width="54" height="20" rx="10" fill="#0f172a" stroke="#64748b" stroke-width="1"/>
<text x="432" y="746" fill="#64748b" font-size="11" font-weight="700" text-anchor="middle">hosts</text>
<rect x="835" y="730" width="74" height="20" rx="10" fill="#0f172a" stroke="#fb923c" stroke-width="1"/>
<text x="872" y="744" fill="#fb923c" font-size="11" font-weight="700" text-anchor="middle">enforces</text>
<rect x="1280" y="728" width="81" height="20" rx="10" fill="#0f172a" stroke="#34d399" stroke-width="1"/>
<text x="1320" y="742" fill="#34d399" font-size="11" font-weight="700" text-anchor="middle">documents</text>
</svg>
