<svg xmlns="http://www.w3.org/2000/svg" width="1700" height="980" viewBox="0 0 1700 980" role="img" aria-labelledby="diagram-title diagram-description" style="font-family: 'JetBrains Mono', ui-monospace, SFMono-Regular, Menlo, Monaco, Consolas, 'Liberation Mono', 'Courier New', monospace;">
  <title id="diagram-title">TypeScript Console hello-vmx Example</title>
  <desc id="diagram-description">minimal Node script for ComponentVMOf lifecycle and rxjs-backed message observation</desc>
  <defs>
    <style>
      text { font-family: 'JetBrains Mono', ui-monospace, SFMono-Regular, Menlo, Monaco, Consolas, 'Liberation Mono', 'Courier New', monospace; }
    </style>
    <pattern id="grid" width="40" height="40" patternUnits="userSpaceOnUse">
      <path d="M 40 0 L 0 0 0 40" fill="none" stroke="#1e293b" stroke-width="0.8"/>
    </pattern>
    <marker id="arrowhead" markerWidth="10" markerHeight="7" refX="9" refY="3.5" orient="auto">
      <polygon points="0 0, 10 3.5, 0 7" fill="#64748b"/>
    </marker>
  </defs>
  <rect width="100%" height="100%" fill="#020617"/>
  <rect width="100%" height="100%" fill="url(#grid)"/>
  <text x="40" y="54" fill="#f8fafc" font-size="28" font-weight="700" text-anchor="start">TypeScript Console hello-vmx Example</text>
  <text x="40" y="82" fill="#94a3b8" font-size="15" font-weight="400" text-anchor="start">minimal Node script for ComponentVMOf lifecycle and rxjs-backed message observation</text>
  <polyline points="420,224 510,224" fill="none" stroke="#22d3ee" stroke-width="2.2" marker-end="url(#arrowhead)"/>
<polyline points="810,224 900,224" fill="none" stroke="#fb923c" stroke-width="2.2" marker-end="url(#arrowhead)"/>
<polyline points="1200,224 1290,224" fill="none" stroke="#fbbf24" stroke-width="2.2" marker-end="url(#arrowhead)"/>
<polyline points="270,282 270,444" fill="none" stroke="#34d399" stroke-width="2.2" marker-end="url(#arrowhead)"/>
<polyline points="660,282 660,444" fill="none" stroke="#34d399" stroke-width="2.2" marker-end="url(#arrowhead)"/>
<polyline points="1050,282 1050,444" fill="none" stroke="#fb923c" stroke-width="2.2" marker-end="url(#arrowhead)"/>
<polyline points="1420,282 1420,444" fill="none" stroke="#a78bfa" stroke-width="2.2" marker-end="url(#arrowhead)"/>
<polyline points="420,505 510,505" fill="none" stroke="#22d3ee" stroke-width="2.2" marker-end="url(#arrowhead)"/>
<polyline points="810,505 900,505" fill="none" stroke="#fb923c" stroke-width="2.2" marker-end="url(#arrowhead)"/>
<polyline points="1200,505 1290,505" fill="none" stroke="#34d399" stroke-width="2.2" marker-end="url(#arrowhead)"/>
<polyline points="660,566 425,738" fill="none" stroke="#64748b" stroke-width="2.2" marker-end="url(#arrowhead)"/>
<polyline points="1050,566 1070,738" fill="none" stroke="#64748b" stroke-width="2.2" marker-end="url(#arrowhead)"/>
<rect x="70" y="118" width="1560" height="248" rx="12" fill="rgba(2, 6, 23, 0.12)" stroke="#22d3ee" stroke-width="1.2" stroke-dasharray="8 4"/>
<text x="84" y="140" fill="#22d3ee" font-size="12" font-weight="700" text-anchor="start">Host and adapter boundary</text>
<rect x="70" y="396" width="1560" height="270" rx="12" fill="rgba(2, 6, 23, 0.12)" stroke="#34d399" stroke-width="1.2" stroke-dasharray="8 4"/>
<text x="84" y="418" fill="#34d399" font-size="12" font-weight="700" text-anchor="start">VMx-owned application state</text>
<rect x="70" y="696" width="1560" height="166" rx="12" fill="rgba(2, 6, 23, 0.12)" stroke="#fb923c" stroke-width="1.2" stroke-dasharray="8 4"/>
<text x="84" y="718" fill="#fb923c" font-size="12" font-weight="700" text-anchor="start">Verification and modeling rule</text>
<rect x="120" y="166" width="300" height="116" rx="8" fill="#0f172a"/>
<rect x="120" y="166" width="300" height="116" rx="8" fill="rgba(8, 51, 68, 0.4)" stroke="#22d3ee" stroke-width="1.8"/>
<text x="270" y="194" fill="#f8fafc" font-size="18" font-weight="700" text-anchor="middle">Node script</text>
<text x="270" y="220" fill="#cbd5e1" font-size="13" font-weight="400" text-anchor="middle">tsx entrypoint</text>
<text x="270" y="239" fill="#cbd5e1" font-size="13" font-weight="400" text-anchor="middle">npm start</text>
<text x="270" y="258" fill="#cbd5e1" font-size="13" font-weight="400" text-anchor="middle">stdout narrative</text>
<rect x="510" y="166" width="300" height="116" rx="8" fill="#0f172a"/>
<rect x="510" y="166" width="300" height="116" rx="8" fill="rgba(136, 19, 55, 0.4)" stroke="#fb7185" stroke-width="1.8"/>
<text x="660" y="194" fill="#f8fafc" font-size="18" font-weight="700" text-anchor="middle">rxjs subscriptions</text>
<text x="660" y="220" fill="#cbd5e1" font-size="13" font-weight="400" text-anchor="middle">hub.messages subscribe</text>
<text x="660" y="239" fill="#cbd5e1" font-size="13" font-weight="400" text-anchor="middle">status/property logs</text>
<text x="660" y="258" fill="#cbd5e1" font-size="13" font-weight="400" text-anchor="middle">no DOM host</text>
<rect x="900" y="166" width="300" height="116" rx="8" fill="#0f172a"/>
<rect x="900" y="166" width="300" height="116" rx="8" fill="rgba(251, 146, 60, 0.3)" stroke="#fb923c" stroke-width="1.8"/>
<text x="1050" y="194" fill="#f8fafc" font-size="18" font-weight="700" text-anchor="middle">User gestures</text>
<text x="1050" y="220" fill="#cbd5e1" font-size="13" font-weight="400" text-anchor="middle">events become VM calls</text>
<text x="1050" y="239" fill="#cbd5e1" font-size="13" font-weight="400" text-anchor="middle">no domain state in host</text>
<text x="1050" y="258" fill="#cbd5e1" font-size="13" font-weight="400" text-anchor="middle">render from VM snapshots</text>
<rect x="1290" y="166" width="260" height="116" rx="8" fill="#0f172a"/>
<rect x="1290" y="166" width="260" height="116" rx="8" fill="rgba(120, 53, 15, 0.3)" stroke="#fbbf24" stroke-width="1.8"/>
<text x="1420" y="194" fill="#f8fafc" font-size="18" font-weight="700" text-anchor="middle">Run surface</text>
<text x="1420" y="220" fill="#cbd5e1" font-size="13" font-weight="400" text-anchor="middle">local example command</text>
<text x="1420" y="239" fill="#cbd5e1" font-size="13" font-weight="400" text-anchor="middle">smoke-friendly path</text>
<text x="1420" y="258" fill="#cbd5e1" font-size="13" font-weight="400" text-anchor="middle">documented README entry</text>
<rect x="120" y="444" width="300" height="122" rx="8" fill="#0f172a"/>
<rect x="120" y="444" width="300" height="122" rx="8" fill="rgba(8, 51, 68, 0.4)" stroke="#22d3ee" stroke-width="1.8"/>
<text x="270" y="472" fill="#f8fafc" font-size="18" font-weight="700" text-anchor="middle">ComponentVMOf&lt;UserModel&gt;</text>
<text x="270" y="498" fill="#cbd5e1" font-size="13" font-weight="400" text-anchor="middle">fluent builder</text>
<text x="270" y="517" fill="#cbd5e1" font-size="13" font-weight="400" text-anchor="middle">name + hint</text>
<text x="270" y="536" fill="#cbd5e1" font-size="13" font-weight="400" text-anchor="middle">construct/destruct/dispose</text>
<rect x="510" y="444" width="300" height="122" rx="8" fill="#0f172a"/>
<rect x="510" y="444" width="300" height="122" rx="8" fill="rgba(76, 29, 149, 0.4)" stroke="#a78bfa" stroke-width="1.8"/>
<text x="660" y="472" fill="#f8fafc" font-size="18" font-weight="700" text-anchor="middle">UserModel projection</text>
<text x="660" y="498" fill="#cbd5e1" font-size="13" font-weight="400" text-anchor="middle">typed object model</text>
<text x="660" y="517" fill="#cbd5e1" font-size="13" font-weight="400" text-anchor="middle">Alice -&gt; Bob mutation</text>
<text x="660" y="536" fill="#cbd5e1" font-size="13" font-weight="400" text-anchor="middle">equality guard</text>
<rect x="900" y="444" width="300" height="122" rx="8" fill="#0f172a"/>
<rect x="900" y="444" width="300" height="122" rx="8" fill="rgba(251, 146, 60, 0.3)" stroke="#fb923c" stroke-width="1.8"/>
<text x="1050" y="472" fill="#f8fafc" font-size="18" font-weight="700" text-anchor="middle">MessageHub</text>
<text x="1050" y="498" fill="#cbd5e1" font-size="13" font-weight="400" text-anchor="middle">ConstructionStatusChanged</text>
<text x="1050" y="517" fill="#cbd5e1" font-size="13" font-weight="400" text-anchor="middle">PropertyChanged</text>
<text x="1050" y="536" fill="#cbd5e1" font-size="13" font-weight="400" text-anchor="middle">rxjs stream</text>
<rect x="1290" y="444" width="260" height="122" rx="8" fill="#0f172a"/>
<rect x="1290" y="444" width="260" height="122" rx="8" fill="rgba(6, 78, 59, 0.4)" stroke="#34d399" stroke-width="1.8"/>
<text x="1420" y="472" fill="#f8fafc" font-size="18" font-weight="700" text-anchor="middle">UserModel</text>
<text x="1420" y="498" fill="#cbd5e1" font-size="13" font-weight="400" text-anchor="middle">name</text>
<text x="1420" y="517" fill="#cbd5e1" font-size="13" font-weight="400" text-anchor="middle">age</text>
<text x="1420" y="536" fill="#cbd5e1" font-size="13" font-weight="400" text-anchor="middle">structural payload</text>
<rect x="250" y="738" width="350" height="96" rx="8" fill="#0f172a"/>
<rect x="250" y="738" width="350" height="96" rx="8" fill="rgba(30, 41, 59, 0.5)" stroke="#94a3b8" stroke-width="1.8"/>
<text x="425" y="766" fill="#f8fafc" font-size="18" font-weight="700" text-anchor="middle">Manual smoke</text>
<text x="425" y="792" fill="#cbd5e1" font-size="13" font-weight="400" text-anchor="middle">npm ci</text>
<text x="425" y="811" fill="#cbd5e1" font-size="13" font-weight="400" text-anchor="middle">npm start</text>
<text x="425" y="830" fill="#cbd5e1" font-size="13" font-weight="400" text-anchor="middle">local VMx build first</text>
<rect x="760" y="738" width="620" height="90" rx="8" fill="#0f172a"/>
<rect x="760" y="738" width="620" height="90" rx="8" fill="rgba(30, 41, 59, 0.5)" stroke="#94a3b8" stroke-width="1.8"/>
<text x="1070" y="766" fill="#f8fafc" font-size="18" font-weight="700" text-anchor="middle">Best-fit use</text>
<text x="1070" y="792" fill="#cbd5e1" font-size="10.85" font-weight="400" text-anchor="middle">Use this as the shortest TypeScript path before adding React adapters or child containers.</text>
<rect x="120" y="884" width="1460" height="58" rx="8" fill="#0f172a"/>
<rect x="120" y="884" width="1460" height="58" rx="8" fill="rgba(15, 23, 42, 0.94)" stroke="#22d3ee" stroke-width="1.2"/>
<text x="136" y="908" fill="#f8fafc" font-size="13" font-weight="700" text-anchor="start">Reading rule</text>
<text x="136" y="930" fill="#cbd5e1" font-size="12" font-weight="400" text-anchor="start">Follow arrows top to bottom: host input becomes VMx commands; VMx state publishes renderable projections back to the host.</text>
<rect x="439" y="196" width="54" height="20" rx="10" fill="#0f172a" stroke="#22d3ee" stroke-width="1"/>
<text x="466" y="210" fill="#22d3ee" font-size="11" font-weight="700" text-anchor="middle">binds</text>
<rect x="826" y="196" width="60" height="20" rx="10" fill="#0f172a" stroke="#fb923c" stroke-width="1"/>
<text x="856" y="210" fill="#fb923c" font-size="11" font-weight="700" text-anchor="middle">routes</text>
<rect x="1219" y="196" width="54" height="20" rx="10" fill="#0f172a" stroke="#fbbf24" stroke-width="1"/>
<text x="1246" y="210" fill="#fbbf24" font-size="11" font-weight="700" text-anchor="middle">runs</text>
<rect x="299" y="354" width="54" height="20" rx="10" fill="#0f172a" stroke="#34d399" stroke-width="1"/>
<text x="326" y="368" fill="#34d399" font-size="11" font-weight="700" text-anchor="middle">owns</text>
<rect x="687" y="354" width="74" height="20" rx="10" fill="#0f172a" stroke="#34d399" stroke-width="1"/>
<text x="724" y="368" fill="#34d399" font-size="11" font-weight="700" text-anchor="middle">projects</text>
<rect x="1079" y="354" width="74" height="20" rx="10" fill="#0f172a" stroke="#fb923c" stroke-width="1"/>
<text x="1116" y="368" fill="#fb923c" font-size="11" font-weight="700" text-anchor="middle">executes</text>
<rect x="1443" y="354" width="54" height="20" rx="10" fill="#0f172a" stroke="#a78bfa" stroke-width="1"/>
<text x="1470" y="368" fill="#a78bfa" font-size="11" font-weight="700" text-anchor="middle">loads</text>
<rect x="429" y="477" width="74" height="20" rx="10" fill="#0f172a" stroke="#22d3ee" stroke-width="1"/>
<text x="466" y="491" fill="#22d3ee" font-size="11" font-weight="700" text-anchor="middle">children</text>
<rect x="819" y="477" width="74" height="20" rx="10" fill="#0f172a" stroke="#fb923c" stroke-width="1"/>
<text x="856" y="491" fill="#fb923c" font-size="11" font-weight="700" text-anchor="middle">commands</text>
<rect x="1219" y="477" width="54" height="20" rx="10" fill="#0f172a" stroke="#34d399" stroke-width="1"/>
<text x="1246" y="491" fill="#34d399" font-size="11" font-weight="700" text-anchor="middle">data</text>
<rect x="517" y="648" width="54" height="20" rx="10" fill="#0f172a" stroke="#94a3b8" stroke-width="1"/>
<text x="544" y="662" fill="#94a3b8" font-size="11" font-weight="700" text-anchor="middle">tests</text>
<rect x="1077" y="648" width="74" height="20" rx="10" fill="#0f172a" stroke="#94a3b8" stroke-width="1"/>
<text x="1114" y="662" fill="#94a3b8" font-size="11" font-weight="700" text-anchor="middle">boundary</text>
</svg>
