<svg xmlns="http://www.w3.org/2000/svg" width="1700" height="980" viewBox="0 0 1700 980" role="img" aria-labelledby="diagram-title diagram-description" style="font-family: 'JetBrains Mono', ui-monospace, SFMono-Regular, Menlo, Monaco, Consolas, 'Liberation Mono', 'Courier New', monospace;">
  <title id="diagram-title">ViewModel Families Map</title>
  <desc id="diagram-description">one conceptual hierarchy, five idioms, and specialized companions</desc>
  <defs>
    <style>
      text { font-family: 'JetBrains Mono', ui-monospace, SFMono-Regular, Menlo, Monaco, Consolas, 'Liberation Mono', 'Courier New', monospace; }
    </style>
    <pattern id="grid" width="40" height="40" patternUnits="userSpaceOnUse">
      <path d="M 40 0 L 0 0 0 40" fill="none" stroke="#1e293b" stroke-width="0.8"/>
    </pattern>
    <marker id="arrowhead" markerWidth="10" markerHeight="7" refX="9" refY="3.5" orient="auto">
      <polygon points="0 0, 10 3.5, 0 7" fill="#64748b"/>
    </marker>
  </defs>
  <rect width="100%" height="100%" fill="#020617"/>
  <rect width="100%" height="100%" fill="url(#grid)"/>
  <text x="40" y="54" fill="#f8fafc" font-size="28" font-weight="700" text-anchor="start">ViewModel Families Map</text>
  <text x="40" y="82" fill="#94a3b8" font-size="15" font-weight="400" text-anchor="start">one conceptual hierarchy, five idioms, and specialized companions</text>
  <polyline points="230,276 230,320" fill="none" stroke="#22d3ee" stroke-width="2.2" marker-end="url(#arrowhead)"/>
<polyline points="340,224 390,224" fill="none" stroke="#22d3ee" stroke-width="2.2" marker-end="url(#arrowhead)"/>
<polyline points="340,246 680,246" fill="none" stroke="#22d3ee" stroke-width="2.2" marker-end="url(#arrowhead)"/>
<polyline points="340,268 970,268" fill="none" stroke="#22d3ee" stroke-width="2.2" marker-end="url(#arrowhead)"/>
<polyline points="340,290 1260,290" fill="none" stroke="#22d3ee" stroke-width="2.2" marker-end="url(#arrowhead)"/>
<polyline points="510,452 510,514" fill="none" stroke="#34d399" stroke-width="2.2" marker-end="url(#arrowhead)"/>
<polyline points="800,452 800,514" fill="none" stroke="#a78bfa" stroke-width="2.2" marker-end="url(#arrowhead)"/>
<polyline points="1090,452 1090,514" fill="none" stroke="#fb923c" stroke-width="2.2" marker-end="url(#arrowhead)"/>
<polyline points="1390,452 1390,514" fill="none" stroke="#fb7185" stroke-width="2.2" marker-end="url(#arrowhead)"/>
<polyline points="1390,642 1390,694" fill="none" stroke="#64748b" stroke-width="2.2" marker-end="url(#arrowhead)"/>
<polyline points="1090,642 1090,694" fill="none" stroke="#64748b" stroke-width="2.2" marker-end="url(#arrowhead)"/>
<polyline points="800,642 800,694" fill="none" stroke="#64748b" stroke-width="2.2" marker-end="url(#arrowhead)"/>
<polyline points="510,642 510,694" fill="none" stroke="#64748b" stroke-width="2.2" marker-end="url(#arrowhead)"/>
<rect x="60" y="122" width="1580" height="694" rx="12" fill="rgba(2, 6, 23, 0.12)" stroke="#22d3ee" stroke-width="1.2" stroke-dasharray="8 4"/>
<text x="74" y="144" fill="#22d3ee" font-size="12" font-weight="700" text-anchor="start">VM family bands</text>
<rect x="120" y="170" width="220" height="106" rx="8" fill="#0f172a"/>
<rect x="120" y="170" width="220" height="106" rx="8" fill="rgba(6, 78, 59, 0.4)" stroke="#34d399" stroke-width="1.8"/>
<text x="230" y="198" fill="#f8fafc" font-size="18" font-weight="700" text-anchor="middle">Lifecycle base</text>
<text x="230" y="224" fill="#cbd5e1" font-size="13" font-weight="400" text-anchor="middle">ComponentVMBase</text>
<text x="230" y="243" fill="#cbd5e1" font-size="13" font-weight="400" text-anchor="middle">Constructed / Disposed</text>
<text x="230" y="262" fill="#cbd5e1" font-size="13" font-weight="400" text-anchor="middle">message hub hooks</text>
<rect x="120" y="320" width="220" height="132" rx="8" fill="#0f172a"/>
<rect x="120" y="320" width="220" height="132" rx="8" fill="rgba(8, 51, 68, 0.4)" stroke="#22d3ee" stroke-width="1.8"/>
<text x="230" y="348" fill="#f8fafc" font-size="18" font-weight="700" text-anchor="middle">Leaf family</text>
<text x="230" y="374" fill="#cbd5e1" font-size="13" font-weight="400" text-anchor="middle">ComponentVM</text>
<text x="230" y="393" fill="#cbd5e1" font-size="13" font-weight="400" text-anchor="middle">ComponentVM&lt;M&gt;</text>
<text x="230" y="412" fill="#cbd5e1" font-size="13" font-weight="400" text-anchor="middle">ReadonlyComponentVM&lt;M&gt;</text>
<rect x="390" y="170" width="240" height="132" rx="8" fill="#0f172a"/>
<rect x="390" y="170" width="240" height="132" rx="8" fill="rgba(8, 51, 68, 0.4)" stroke="#22d3ee" stroke-width="1.8"/>
<text x="510" y="198" fill="#f8fafc" font-size="16.86" font-weight="700" text-anchor="middle">Selectable containers</text>
<text x="510" y="224" fill="#cbd5e1" font-size="13" font-weight="400" text-anchor="middle">CompositeVM&lt;VM&gt;</text>
<text x="510" y="243" fill="#cbd5e1" font-size="13" font-weight="400" text-anchor="middle">CompositeVM&lt;M,VM&gt;</text>
<text x="510" y="262" fill="#cbd5e1" font-size="13" font-weight="400" text-anchor="middle">Current slot</text>
<rect x="390" y="336" width="240" height="116" rx="8" fill="#0f172a"/>
<rect x="390" y="336" width="240" height="116" rx="8" fill="rgba(8, 51, 68, 0.4)" stroke="#22d3ee" stroke-width="1.8"/>
<text x="510" y="364" fill="#f8fafc" font-size="18" font-weight="700" text-anchor="middle">Peer containers</text>
<text x="510" y="390" fill="#cbd5e1" font-size="13" font-weight="400" text-anchor="middle">GroupVM&lt;VM&gt;</text>
<text x="510" y="409" fill="#cbd5e1" font-size="13" font-weight="400" text-anchor="middle">homogeneous peers</text>
<text x="510" y="428" fill="#cbd5e1" font-size="13" font-weight="400" text-anchor="middle">no Current</text>
<rect x="680" y="170" width="240" height="132" rx="8" fill="#0f172a"/>
<rect x="680" y="170" width="240" height="132" rx="8" fill="rgba(8, 51, 68, 0.4)" stroke="#22d3ee" stroke-width="1.8"/>
<text x="800" y="198" fill="#f8fafc" font-size="16.09" font-weight="700" text-anchor="middle">Fixed-arity containers</text>
<text x="800" y="224" fill="#cbd5e1" font-size="13" font-weight="400" text-anchor="middle">AggregateVM1..6</text>
<text x="800" y="243" fill="#cbd5e1" font-size="13" font-weight="400" text-anchor="middle">heterogeneous components</text>
<text x="800" y="262" fill="#cbd5e1" font-size="13" font-weight="400" text-anchor="middle">typed ComponentN slots</text>
<rect x="680" y="336" width="240" height="116" rx="8" fill="#0f172a"/>
<rect x="680" y="336" width="240" height="116" rx="8" fill="rgba(8, 51, 68, 0.4)" stroke="#22d3ee" stroke-width="1.8"/>
<text x="800" y="364" fill="#f8fafc" font-size="18" font-weight="700" text-anchor="middle">Recursive container</text>
<text x="800" y="390" fill="#cbd5e1" font-size="13" font-weight="400" text-anchor="middle">HierarchicalVM&lt;TModel,TVM&gt;</text>
<text x="800" y="409" fill="#cbd5e1" font-size="13" font-weight="400" text-anchor="middle">Parent / Depth / Path</text>
<text x="800" y="428" fill="#cbd5e1" font-size="13" font-weight="400" text-anchor="middle">structural messages</text>
<rect x="970" y="170" width="240" height="132" rx="8" fill="#0f172a"/>
<rect x="970" y="170" width="240" height="132" rx="8" fill="rgba(8, 51, 68, 0.4)" stroke="#22d3ee" stroke-width="1.8"/>
<text x="1090" y="198" fill="#f8fafc" font-size="16.86" font-weight="700" text-anchor="middle">Forwarding decorators</text>
<text x="1090" y="224" fill="#cbd5e1" font-size="13" font-weight="400" text-anchor="middle">ForwardingComponentVM</text>
<text x="1090" y="243" fill="#cbd5e1" font-size="13" font-weight="400" text-anchor="middle">ForwardingCompositeVM</text>
<text x="1090" y="262" fill="#cbd5e1" font-size="13" font-weight="400" text-anchor="middle">instrumentation / overrides</text>
<rect x="1260" y="170" width="260" height="132" rx="8" fill="#0f172a"/>
<rect x="1260" y="170" width="260" height="132" rx="8" fill="rgba(136, 19, 55, 0.4)" stroke="#fb7185" stroke-width="1.8"/>
<text x="1390" y="198" fill="#f8fafc" font-size="18" font-weight="700" text-anchor="middle">Specialized VMs</text>
<text x="1390" y="224" fill="#cbd5e1" font-size="13" font-weight="400" text-anchor="middle">FormVM / DiscriminatorVM</text>
<text x="1390" y="243" fill="#cbd5e1" font-size="12.48" font-weight="400" text-anchor="middle">NotificationVM / ConfirmationVM</text>
<text x="1390" y="262" fill="#cbd5e1" font-size="13" font-weight="400" text-anchor="middle">AsyncResourceVM</text>
<rect x="390" y="514" width="240" height="128" rx="8" fill="#0f172a"/>
<rect x="390" y="514" width="240" height="128" rx="8" fill="rgba(136, 19, 55, 0.4)" stroke="#fb7185" stroke-width="1.8"/>
<text x="510" y="542" fill="#f8fafc" font-size="18" font-weight="700" text-anchor="middle">Capability overlays</text>
<text x="510" y="568" fill="#cbd5e1" font-size="13" font-weight="400" text-anchor="middle">selection / expansion</text>
<text x="510" y="587" fill="#cbd5e1" font-size="13" font-weight="400" text-anchor="middle">CRUD / dialog / paging</text>
<text x="510" y="606" fill="#cbd5e1" font-size="13" font-weight="400" text-anchor="middle">22 micro-interfaces</text>
<rect x="680" y="514" width="240" height="128" rx="8" fill="#0f172a"/>
<rect x="680" y="514" width="240" height="128" rx="8" fill="rgba(76, 29, 149, 0.4)" stroke="#a78bfa" stroke-width="1.8"/>
<text x="800" y="542" fill="#f8fafc" font-size="18" font-weight="700" text-anchor="middle">State helpers</text>
<text x="800" y="568" fill="#cbd5e1" font-size="13" font-weight="400" text-anchor="middle">DerivedProperty</text>
<text x="800" y="587" fill="#cbd5e1" font-size="10.73" font-weight="400" text-anchor="middle">ExpandableState / SearchableState</text>
<text x="800" y="606" fill="#cbd5e1" font-size="13" font-weight="400" text-anchor="middle">AsyncResourceVM</text>
<rect x="970" y="514" width="240" height="128" rx="8" fill="#0f172a"/>
<rect x="970" y="514" width="240" height="128" rx="8" fill="rgba(76, 29, 149, 0.4)" stroke="#a78bfa" stroke-width="1.8"/>
<text x="1090" y="542" fill="#f8fafc" font-size="18" font-weight="700" text-anchor="middle">Paging helpers</text>
<text x="1090" y="568" fill="#cbd5e1" font-size="13" font-weight="400" text-anchor="middle">PagedComposition</text>
<text x="1090" y="587" fill="#cbd5e1" font-size="13" font-weight="400" text-anchor="middle">TokenPagedComposition</text>
<text x="1090" y="606" fill="#cbd5e1" font-size="13" font-weight="400" text-anchor="middle">filtered/scored views</text>
<rect x="1260" y="514" width="260" height="128" rx="8" fill="#0f172a"/>
<rect x="1260" y="514" width="260" height="128" rx="8" fill="rgba(251, 146, 60, 0.3)" stroke="#fb923c" stroke-width="1.8"/>
<text x="1390" y="542" fill="#f8fafc" font-size="18" font-weight="700" text-anchor="middle">Services + messages</text>
<text x="1390" y="568" fill="#cbd5e1" font-size="13" font-weight="400" text-anchor="middle">MessageHub</text>
<text x="1390" y="587" fill="#cbd5e1" font-size="13" font-weight="400" text-anchor="middle">IDialogService</text>
<text x="1390" y="606" fill="#cbd5e1" font-size="13" font-weight="400" text-anchor="middle">INotificationHub</text>
<text x="1390" y="625" fill="#cbd5e1" font-size="13" font-weight="400" text-anchor="middle">PropertyChangedMessage</text>
<rect x="240" y="694" width="1240" height="86" rx="8" fill="#0f172a"/>
<rect x="240" y="694" width="1240" height="86" rx="8" fill="rgba(30, 41, 59, 0.5)" stroke="#94a3b8" stroke-width="1.8"/>
<text x="860" y="722" fill="#f8fafc" font-size="18" font-weight="700" text-anchor="middle">Flavor surface</text>
<text x="860" y="748" fill="#cbd5e1" font-size="13" font-weight="400" text-anchor="middle">C# PascalCase, Python/Rust snake_case methods, TypeScript/Swift camelCase; Rust gaps remain ledgered.</text>
<rect x="80" y="842" width="1540" height="76" rx="8" fill="#0f172a"/>
<rect x="80" y="842" width="1540" height="76" rx="8" fill="rgba(15, 23, 42, 0.94)" stroke="#94a3b8" stroke-width="1.2"/>
<text x="96" y="866" fill="#f8fafc" font-size="13" font-weight="700" text-anchor="start">Reading note</text>
<text x="96" y="888" fill="#cbd5e1" font-size="12" font-weight="400" text-anchor="start">VMx keeps containers, decorators, helpers, and specialized VMs as separate families so host apps can compose only the primitives they need.</text>
<rect x="245" y="288" width="67" height="20" rx="10" fill="#0f172a" stroke="#22d3ee" stroke-width="1"/>
<text x="278" y="302" fill="#22d3ee" font-size="11" font-weight="700" text-anchor="middle">extends</text>
<rect x="522" y="474" width="88" height="20" rx="10" fill="#0f172a" stroke="#34d399" stroke-width="1"/>
<text x="566" y="488" fill="#34d399" font-size="11" font-weight="700" text-anchor="middle">implements</text>
<rect x="819" y="474" width="74" height="20" rx="10" fill="#0f172a" stroke="#a78bfa" stroke-width="1"/>
<text x="856" y="488" fill="#a78bfa" font-size="11" font-weight="700" text-anchor="middle">composes</text>
<rect x="1106" y="474" width="137" height="20" rx="10" fill="#0f172a" stroke="#fb923c" stroke-width="1"/>
<text x="1174" y="488" fill="#fb923c" font-size="11" font-weight="700" text-anchor="middle">wraps / decorates</text>
<rect x="1407" y="474" width="123" height="20" rx="10" fill="#0f172a" stroke="#fb7185" stroke-width="1"/>
<text x="1468" y="488" fill="#fb7185" font-size="11" font-weight="700" text-anchor="middle">injects / posts</text>
</svg>
