<svg xmlns="http://www.w3.org/2000/svg" width="1600" height="860" viewBox="0 0 1600 860" role="img" aria-labelledby="diagram-title diagram-description" style="font-family: 'JetBrains Mono', ui-monospace, SFMono-Regular, Menlo, Monaco, Consolas, monospace;">
  <title id="diagram-title">VMx Library Class Map</title>
  <desc id="diagram-description">cluster-level class families for spec 3.22.0</desc>
  <defs>
    <style>text { font-family: 'JetBrains Mono', ui-monospace, SFMono-Regular, Menlo, Monaco, Consolas, monospace; }</style>
    <pattern id="grid" width="40" height="40" patternUnits="userSpaceOnUse">
      <path d="M 40 0 L 0 0 0 40" fill="none" stroke="#1e293b" stroke-width="0.7"/>
    </pattern>
    <marker id="arrowhead" markerWidth="10" markerHeight="7" refX="9" refY="3.5" orient="auto">
      <polygon points="0 0, 10 3.5, 0 7" fill="#64748b"/>
    </marker>
  </defs>
  <rect width="100%" height="100%" fill="#020617"/>
  <rect width="100%" height="100%" fill="url(#grid)"/>
  <text x="40" y="54" fill="white" font-size="28" font-weight="700" text-anchor="start">VMx Library Class Map</text>
  <text x="40" y="84" fill="#94a3b8" font-size="15" font-weight="400" text-anchor="start">cluster-level class families for spec 3.22.0</text>
  <path d="M210,275 C185,275 185,350 160,350" fill="none" stroke="#64748b" stroke-width="2.2" marker-end="url(#arrowhead)"/>

<path d="M210,275 C330,275 330,350 450,350" fill="none" stroke="#64748b" stroke-width="2.2" marker-end="url(#arrowhead)"/>

<path d="M210,275 C475,275 475,350 740,350" fill="none" stroke="#64748b" stroke-width="2.2" marker-end="url(#arrowhead)"/>
<rect x="412.8" y="287" width="124.5" height="20" rx="3" fill="#020617"/>
<text x="475" y="302" fill="#94a3b8" font-size="12" font-weight="400" text-anchor="middle">AsyncResourceVM</text>
<path d="M550,275 C500,275 500,350 450,350" fill="none" stroke="#64748b" stroke-width="2.2" marker-end="url(#arrowhead)"/>
<rect x="456.5" y="309" width="87.0" height="20" rx="3" fill="#020617"/>
<text x="500" y="324" fill="#94a3b8" font-size="12" font-weight="400" text-anchor="middle">hub events</text>
<path d="M890,295 C1137,295 1137,350 1385,350" fill="none" stroke="#64748b" stroke-width="2.2" marker-end="url(#arrowhead)"/>

<path d="M1230,275 C840,275 840,350 450,350" fill="none" stroke="#fbbf24" stroke-width="2.2" marker-end="url(#arrowhead)"/>
<rect x="811.5" y="309" width="57.0" height="20" rx="3" fill="#020617"/>
<text x="840" y="324" fill="#94a3b8" font-size="12" font-weight="400" text-anchor="middle">builds</text>
<path d="M450,520 C385,520 385,610 320,610" fill="none" stroke="#64748b" stroke-width="2.2" marker-end="url(#arrowhead)"/>
<rect x="349.0" y="540" width="72.0" height="20" rx="3" fill="#020617"/>
<text x="385" y="555" fill="#94a3b8" font-size="12" font-weight="400" text-anchor="middle">commands</text>
<path d="M740,520 C725,520 725,610 710,610" fill="none" stroke="#64748b" stroke-width="2.2" marker-end="url(#arrowhead)"/>
<rect x="674.0" y="540" width="102.0" height="20" rx="3" fill="#020617"/>
<text x="725" y="555" fill="#94a3b8" font-size="12" font-weight="400" text-anchor="middle">capabilities</text>
<path d="M1385,520 C1242,520 1242,610 1100,610" fill="none" stroke="#64748b" stroke-width="2.2" marker-end="url(#arrowhead)"/>
<rect x="1187.2" y="540" width="109.5" height="20" rx="3" fill="#020617"/>
<text x="1242" y="555" fill="#94a3b8" font-size="12" font-weight="400" text-anchor="middle">derived state</text>
<rect x="60" y="130" width="300" height="145" rx="12" fill="#0f172a"/>
<rect x="60" y="130" width="300" height="145" rx="12" fill="rgba(6, 78, 59, 0.42)" stroke="#34d399" stroke-width="2"/>
<text x="210" y="162" fill="white" font-size="18" font-weight="700" text-anchor="middle">Lifecycle Base</text>
<text x="210" y="188" fill="#cbd5e1" font-size="14" font-weight="400" text-anchor="middle">ComponentVMBase</text>
<text x="210" y="212" fill="#cbd5e1" font-size="14" font-weight="400" text-anchor="middle">ConstructionStatus</text>
<text x="210" y="236" fill="#cbd5e1" font-size="14" font-weight="400" text-anchor="middle">construct / destruct / dispose</text>
<text x="210" y="260" fill="#cbd5e1" font-size="14" font-weight="400" text-anchor="middle">fixture-backed transitions</text>
<rect x="400" y="130" width="300" height="145" rx="12" fill="#0f172a"/>
<rect x="400" y="130" width="300" height="145" rx="12" fill="rgba(251, 146, 60, 0.34)" stroke="#fb923c" stroke-width="2"/>
<text x="550" y="162" fill="white" font-size="18" font-weight="700" text-anchor="middle">Messages</text>
<text x="550" y="188" fill="#cbd5e1" font-size="14" font-weight="400" text-anchor="middle">PropertyChangedMessage</text>
<text x="550" y="212" fill="#cbd5e1" font-size="14" font-weight="400" text-anchor="middle">ConstructionStatusChangedMessage</text>
<text x="550" y="236" fill="#cbd5e1" font-size="14" font-weight="400" text-anchor="middle">TreeStructureChangedMessage</text>
<text x="550" y="260" fill="#cbd5e1" font-size="14" font-weight="400" text-anchor="middle">property-value projection helper</text>
<rect x="740" y="130" width="300" height="165" rx="12" fill="#0f172a"/>
<rect x="740" y="130" width="300" height="165" rx="12" fill="rgba(136, 19, 55, 0.42)" stroke="#fb7185" stroke-width="2"/>
<text x="890" y="162" fill="white" font-size="18" font-weight="700" text-anchor="middle">Services</text>
<text x="890" y="188" fill="#cbd5e1" font-size="14" font-weight="400" text-anchor="middle">MessageHub</text>
<text x="890" y="212" fill="#cbd5e1" font-size="14" font-weight="400" text-anchor="middle">Dispatcher</text>
<text x="890" y="236" fill="#cbd5e1" font-size="14" font-weight="400" text-anchor="middle">ILocalizer</text>
<text x="890" y="260" fill="#cbd5e1" font-size="14" font-weight="400" text-anchor="middle">IDialogService</text>
<text x="890" y="284" fill="#cbd5e1" font-size="14" font-weight="400" text-anchor="middle">Null* variants</text>
<rect x="1080" y="130" width="300" height="145" rx="12" fill="#0f172a"/>
<rect x="1080" y="130" width="300" height="145" rx="12" fill="rgba(120, 53, 15, 0.34)" stroke="#fbbf24" stroke-width="2"/>
<text x="1230" y="162" fill="white" font-size="18" font-weight="700" text-anchor="middle">Builders</text>
<text x="1230" y="188" fill="#cbd5e1" font-size="14" font-weight="400" text-anchor="middle">immutable fluent setters</text>
<text x="1230" y="212" fill="#cbd5e1" font-size="14" font-weight="400" text-anchor="middle">required-field validation</text>
<text x="1230" y="236" fill="#cbd5e1" font-size="14" font-weight="400" text-anchor="middle">options-value factories</text>
<text x="1230" y="260" fill="#cbd5e1" font-size="14" font-weight="400" text-anchor="middle">per-flavor idioms</text>
<rect x="40" y="350" width="240" height="170" rx="12" fill="#0f172a"/>
<rect x="40" y="350" width="240" height="170" rx="12" fill="rgba(8, 51, 68, 0.42)" stroke="#22d3ee" stroke-width="2"/>
<text x="160" y="382" fill="white" font-size="18" font-weight="700" text-anchor="middle">Leaf VMs</text>
<text x="160" y="408" fill="#cbd5e1" font-size="14" font-weight="400" text-anchor="middle">ComponentVM</text>
<text x="160" y="432" fill="#cbd5e1" font-size="14" font-weight="400" text-anchor="middle">ComponentVM&lt;M&gt;</text>
<text x="160" y="456" fill="#cbd5e1" font-size="14" font-weight="400" text-anchor="middle">ReadonlyComponentVM&lt;M&gt;</text>
<text x="160" y="480" fill="#cbd5e1" font-size="14" font-weight="400" text-anchor="middle">ForwardingComponentVM</text>
<rect x="320" y="350" width="260" height="170" rx="12" fill="#0f172a"/>
<rect x="320" y="350" width="260" height="170" rx="12" fill="rgba(8, 51, 68, 0.42)" stroke="#22d3ee" stroke-width="2"/>
<text x="450" y="382" fill="white" font-size="18" font-weight="700" text-anchor="middle">Containers</text>
<text x="450" y="408" fill="#cbd5e1" font-size="14" font-weight="400" text-anchor="middle">CompositeVM / GroupVM</text>
<text x="450" y="432" fill="#cbd5e1" font-size="14" font-weight="400" text-anchor="middle">shared collection surface</text>
<text x="450" y="456" fill="#cbd5e1" font-size="14" font-weight="400" text-anchor="middle">identity-safe atomic move</text>
<text x="450" y="480" fill="#cbd5e1" font-size="14" font-weight="400" text-anchor="middle">Aggregate / Hierarchical</text>
<rect x="620" y="350" width="240" height="170" rx="12" fill="#0f172a"/>
<rect x="620" y="350" width="240" height="170" rx="12" fill="rgba(8, 51, 68, 0.42)" stroke="#22d3ee" stroke-width="2"/>
<text x="740" y="382" fill="white" font-size="18" font-weight="700" text-anchor="middle">Async Resource VM</text>
<text x="740" y="408" fill="#cbd5e1" font-size="14" font-weight="400" text-anchor="middle">lifecycle state VM</text>
<text x="740" y="432" fill="#cbd5e1" font-size="14" font-weight="400" text-anchor="middle">Four flavors inherit base</text>
<text x="740" y="456" fill="#cbd5e1" font-size="14" font-weight="400" text-anchor="middle">Rust composes component</text>
<text x="740" y="480" fill="#cbd5e1" font-size="14" font-weight="400" text-anchor="middle">load / reload / cancel</text>
<rect x="900" y="350" width="280" height="170" rx="12" fill="#0f172a"/>
<rect x="900" y="350" width="280" height="170" rx="12" fill="rgba(8, 51, 68, 0.42)" stroke="#22d3ee" stroke-width="2"/>
<text x="1040" y="382" fill="white" font-size="18" font-weight="700" text-anchor="middle">Coordinators</text>
<text x="1040" y="408" fill="#cbd5e1" font-size="14" font-weight="400" text-anchor="middle">FormVM / DiscriminatorVM</text>
<text x="1040" y="432" fill="#cbd5e1" font-size="14" font-weight="400" text-anchor="middle">Notification / Confirmation</text>
<text x="1040" y="456" fill="#cbd5e1" font-size="14" font-weight="400" text-anchor="middle">independent in four flavors</text>
<text x="1040" y="480" fill="#cbd5e1" font-size="14" font-weight="400" text-anchor="middle">Rust FormVM composes a leaf</text>
<rect x="1220" y="350" width="330" height="170" rx="12" fill="#0f172a"/>
<rect x="1220" y="350" width="330" height="170" rx="12" fill="rgba(76, 29, 149, 0.42)" stroke="#a78bfa" stroke-width="2"/>
<text x="1385" y="382" fill="white" font-size="18" font-weight="700" text-anchor="middle">Collections &amp; Views</text>
<text x="1385" y="408" fill="#cbd5e1" font-size="14" font-weight="400" text-anchor="middle">ObservableList / Dictionary</text>
<text x="1385" y="432" fill="#cbd5e1" font-size="14" font-weight="400" text-anchor="middle">serviced + multi-key indexes</text>
<text x="1385" y="456" fill="#cbd5e1" font-size="14" font-weight="400" text-anchor="middle">PagedComposition</text>
<text x="1385" y="480" fill="#cbd5e1" font-size="14" font-weight="400" text-anchor="middle">TokenPagedComposition</text>
<text x="1385" y="504" fill="#cbd5e1" font-size="14" font-weight="400" text-anchor="middle">filtered / scored views</text>
<rect x="160" y="610" width="320" height="150" rx="12" fill="#0f172a"/>
<rect x="160" y="610" width="320" height="150" rx="12" fill="rgba(251, 146, 60, 0.34)" stroke="#fb923c" stroke-width="2"/>
<text x="320" y="642" fill="white" font-size="18" font-weight="700" text-anchor="middle">Commands</text>
<text x="320" y="668" fill="#cbd5e1" font-size="14" font-weight="400" text-anchor="middle">RelayCommand / AsyncRelayCommand</text>
<text x="320" y="692" fill="#cbd5e1" font-size="14" font-weight="400" text-anchor="middle">DecoratorCommand</text>
<text x="320" y="716" fill="#cbd5e1" font-size="14" font-weight="400" text-anchor="middle">ConfirmationDecoratorCommand</text>
<text x="320" y="740" fill="#cbd5e1" font-size="14" font-weight="400" text-anchor="middle">ModeledCrudCommands</text>
<rect x="550" y="610" width="320" height="150" rx="12" fill="#0f172a"/>
<rect x="550" y="610" width="320" height="150" rx="12" fill="rgba(136, 19, 55, 0.42)" stroke="#fb7185" stroke-width="2"/>
<text x="710" y="642" fill="white" font-size="18" font-weight="700" text-anchor="middle">Capabilities</text>
<text x="710" y="668" fill="#cbd5e1" font-size="14" font-weight="400" text-anchor="middle">22 micro-interfaces</text>
<text x="710" y="692" fill="#cbd5e1" font-size="14" font-weight="400" text-anchor="middle">select / expand / close</text>
<text x="710" y="716" fill="#cbd5e1" font-size="14" font-weight="400" text-anchor="middle">search / filter / page</text>
<text x="710" y="740" fill="#cbd5e1" font-size="14" font-weight="400" text-anchor="middle">CRUD and dialog contracts</text>
<rect x="940" y="610" width="320" height="150" rx="12" fill="#0f172a"/>
<rect x="940" y="610" width="320" height="150" rx="12" fill="rgba(76, 29, 149, 0.42)" stroke="#a78bfa" stroke-width="2"/>
<text x="1100" y="642" fill="white" font-size="18" font-weight="700" text-anchor="middle">State Helpers</text>
<text x="1100" y="668" fill="#cbd5e1" font-size="14" font-weight="400" text-anchor="middle">DerivedProperty</text>
<text x="1100" y="692" fill="#cbd5e1" font-size="14" font-weight="400" text-anchor="middle">SearchableState</text>
<text x="1100" y="716" fill="#cbd5e1" font-size="14" font-weight="400" text-anchor="middle">ExpandableState</text>
<text x="1100" y="740" fill="#cbd5e1" font-size="14" font-weight="400" text-anchor="middle">Discriminator active key</text>
<rect x="1330" y="610" width="210" height="150" rx="12" fill="#0f172a"/>
<rect x="1330" y="610" width="210" height="150" rx="12" fill="rgba(30, 41, 59, 0.55)" stroke="#94a3b8" stroke-width="2"/>
<text x="1435" y="642" fill="white" font-size="18" font-weight="700" text-anchor="middle">Tree Utils</text>
<text x="1435" y="668" fill="#cbd5e1" font-size="14" font-weight="400" text-anchor="middle">walk</text>
<text x="1435" y="692" fill="#cbd5e1" font-size="14" font-weight="400" text-anchor="middle">walk_expanded</text>
<text x="1435" y="716" fill="#cbd5e1" font-size="14" font-weight="400" text-anchor="middle">find</text>
<text x="1435" y="740" fill="#cbd5e1" font-size="14" font-weight="400" text-anchor="middle">materialized paths</text>
</svg>
